<svg width="170" height="92" viewBox="0 0 170 92" fill="none" xmlns="http://www.w3.org/2000/svg">
<rect x="0.5" y="0.5" width="169" height="91" rx="3.5" stroke="#AFB1B8"/>
<path d="M85.425 43.4081C84.9819 42.8183 84.7699 42.1212 84.8203 41.4195V38.5363C84.8203 37.6525 85.0207 36.9808 85.4216 36.5213C85.8224 36.0618 86.511 35.833 87.4871 35.835C88.4044 35.835 89.0555 36.0305 89.4405 36.4216C89.8605 36.9206 90.0648 37.5307 90.018 38.1462V38.8238H88.3772V38.1374C88.383 37.9128 88.3671 37.6881 88.3296 37.4657C88.306 37.3137 88.2234 37.1731 88.0952 37.0669C87.9267 36.9523 87.7145 36.8968 87.5007 36.9114C87.2759 36.8969 87.0529 36.9555 86.8756 37.0757C86.7327 37.1933 86.6374 37.3476 86.6038 37.5156C86.5567 37.7509 86.5351 37.9896 86.5393 38.2283V41.7275C86.5134 42.065 86.5858 42.4028 86.7499 42.71C86.8315 42.814 86.9448 42.8964 87.0774 42.9482C87.2099 42.9999 87.3564 43.019 87.5007 43.0034C87.7109 43.0183 87.9195 42.9614 88.0816 42.845C88.2153 42.7304 88.3013 42.5809 88.3262 42.4197C88.3645 42.1875 88.3816 41.9531 88.3772 41.7187V41.0089H90.018V41.6571C90.0641 42.2986 89.8648 42.9355 89.4507 43.4697C89.0736 43.8979 88.4315 44.112 87.4871 44.112C86.5427 44.112 85.8292 43.8833 85.425 43.4081Z" fill="#AFB1B8"/>
<path d="M92.2569 43.4374C91.8425 42.9887 91.6353 42.3346 91.6353 41.4694V38.4366C91.6353 37.5801 91.8425 36.9319 92.2569 36.492C92.6714 36.052 93.3644 35.833 94.336 35.835C95.3008 35.835 95.9904 36.054 96.4049 36.492C96.8193 36.9319 97.03 37.5801 97.03 38.4366V41.4694C97.03 42.3258 96.8193 42.9828 96.3981 43.4345C95.9768 43.8862 95.2906 44.112 94.336 44.112C93.3814 44.112 92.6748 43.8833 92.2569 43.4374ZM95.1004 42.71C95.2488 42.4289 95.3164 42.121 95.2974 41.8125V38.0993C95.3165 37.7968 95.25 37.4948 95.1038 37.2194C95.0205 37.1132 94.9044 37.0295 94.7686 36.9776C94.6329 36.9257 94.483 36.9079 94.336 36.9261C94.1886 36.9083 94.0384 36.9264 93.9022 36.9782C93.766 37.03 93.6492 37.1135 93.5648 37.2194C93.4155 37.494 93.3477 37.7964 93.3678 38.0993V41.8301C93.3472 42.1387 93.4148 42.447 93.5648 42.7276C93.6605 42.8223 93.7785 42.8981 93.9109 42.95C94.0434 43.002 94.1872 43.0289 94.3326 43.0289C94.4781 43.0289 94.6219 43.002 94.7543 42.95C94.8867 42.8981 95.0047 42.8223 95.1004 42.7276V42.71Z" fill="#AFB1B8"/>
<path d="M99.0035 35.9238H100.77L102.098 41.5195L103.457 35.9238H105.176L105.35 44.0005H104.079L103.943 38.3873L102.632 44.0005H101.613L100.254 38.3668L100.128 44.0005H98.8439L99.0035 35.9238Z" fill="#AFB1B8"/>
<path d="M107.33 35.9238H110.082C111.667 35.9238 112.46 36.6883 112.46 38.2172C112.46 39.6816 111.625 40.4128 109.956 40.4109H109.019V44.0005H107.32L107.33 35.9238ZM109.681 39.3756C109.849 39.394 110.019 39.3807 110.181 39.3367C110.342 39.2926 110.49 39.2189 110.615 39.1205C110.81 38.8477 110.896 38.5273 110.86 38.2084C110.869 37.962 110.841 37.7157 110.778 37.4752C110.754 37.3949 110.712 37.3196 110.653 37.2536C110.595 37.1877 110.522 37.1324 110.439 37.0911C110.203 36.9934 109.942 36.949 109.681 36.962H109.022V39.3756H109.681Z" fill="#AFB1B8"/>
<path d="M114.909 35.9238H116.734L118.606 44.0005H117.022L116.652 42.1383H115.025L114.644 44.0005H113.038L114.909 35.9238ZM116.469 41.2027L115.833 37.8125L115.198 41.2027H116.469Z" fill="#AFB1B8"/>
<path d="M120.117 35.9238H121.306L123.582 40.5311V35.9238H124.992V44.0005H123.861L121.571 39.1909V44.0005H120.114L120.117 35.9238Z" fill="#AFB1B8"/>
<path d="M128.294 40.9204L126.402 35.9346H127.996L129.151 39.1373L130.234 35.9346H131.794L129.925 40.9204V44H128.294V40.9204Z" fill="#AFB1B8"/>
<path d="M88.0477 47.5312V47.9536H86.6617V51.2355H86.0807V47.9536H84.6879V47.5312H88.0477Z" fill="#AFB1B8"/>
<path d="M92.3927 51.2363H91.9442C91.8987 51.2388 91.8538 51.2262 91.8185 51.2011C91.7846 51.1796 91.7587 51.1501 91.7438 51.1161L91.3429 50.2362H89.4201L89.0192 51.1161C89.0078 51.1529 88.9869 51.187 88.958 51.2158C88.9225 51.2403 88.8778 51.2529 88.8324 51.251H88.3839L90.0825 47.5469H90.6737L92.3927 51.2363ZM89.5797 49.8608H91.1833L90.5038 48.3534C90.4537 48.2394 90.4117 48.1228 90.3781 48.0044C90.3543 48.0748 90.3339 48.1422 90.3136 48.2009L90.2524 48.3563L89.5797 49.8608Z" fill="#AFB1B8"/>
<path d="M95.3212 50.8724C95.4275 50.8772 95.5341 50.8772 95.6405 50.8724C95.7323 50.8642 95.8232 50.8495 95.9123 50.8284C95.9955 50.8107 96.0772 50.7882 96.1569 50.7609C96.2316 50.7345 96.3064 50.7022 96.3845 50.67V49.8369H95.705C95.6882 49.8378 95.6714 49.8356 95.6556 49.8305C95.6399 49.8255 95.6255 49.8177 95.6133 49.8076C95.6022 49.7993 95.5933 49.7889 95.5875 49.7772C95.5816 49.7655 95.5788 49.7529 95.5794 49.7401V49.4556H96.8975V50.8753C96.7899 50.9417 96.6763 51.0006 96.5577 51.0513C96.4366 51.1029 96.3104 51.1451 96.1807 51.1774C96.0417 51.2127 95.8997 51.2382 95.756 51.2537C95.5913 51.2695 95.4257 51.2773 95.26 51.2771C94.967 51.2793 94.6763 51.2325 94.4039 51.1393C94.1496 51.051 93.9185 50.9193 93.7245 50.7521C93.5353 50.5832 93.3864 50.3839 93.2862 50.1655C93.1792 49.9199 93.1261 49.6593 93.13 49.397C93.1264 49.133 93.1782 48.8706 93.2828 48.6226C93.3805 48.4031 93.5297 48.2033 93.7211 48.036C93.9149 47.8693 94.1461 47.7386 94.4005 47.6517C94.6914 47.5572 95.0002 47.5105 95.311 47.5138C95.4691 47.5137 95.627 47.5245 95.7832 47.5461C95.9213 47.5655 96.0567 47.597 96.1875 47.64C96.3063 47.6785 96.4202 47.7277 96.5272 47.7866C96.6313 47.8445 96.7301 47.9092 96.8227 47.9802L96.6597 48.209C96.6469 48.2299 96.6279 48.2475 96.6046 48.2598C96.5813 48.2722 96.5545 48.279 96.5272 48.2794C96.4896 48.2784 96.4531 48.2682 96.4219 48.2501C96.3709 48.2266 96.3165 48.1973 96.2554 48.1621C96.1832 48.123 96.107 48.0896 96.0278 48.0624C95.9265 48.0273 95.822 47.9998 95.7152 47.9802C95.5729 47.9576 95.4285 47.9468 95.2838 47.948C95.0597 47.9458 94.8371 47.9807 94.6281 48.0506C94.4391 48.1161 94.2687 48.2162 94.1287 48.3439C93.9879 48.4771 93.8804 48.6339 93.8128 48.8045C93.661 49.2056 93.661 49.6381 93.8128 50.0393C93.8871 50.2135 94.0029 50.3724 94.1525 50.5057C94.2918 50.6328 94.4609 50.7328 94.6485 50.799C94.8645 50.8631 95.0935 50.888 95.3212 50.8724Z" fill="#AFB1B8"/>
<path d="M100.736 50.8132H102.591V51.2355H100.169V47.5312H100.75L100.736 50.8132Z" fill="#AFB1B8"/>
<path d="M104.521 51.2355H103.94V47.5312H104.521V51.2355Z" fill="#AFB1B8"/>
<path d="M106.681 47.5489C106.716 47.5659 106.746 47.5888 106.77 47.6163L109.253 50.4086C109.25 50.3647 109.25 50.3206 109.253 50.2767C109.253 50.2356 109.253 50.1945 109.253 50.1564V47.5166H109.759V51.2358H109.467C109.424 51.2388 109.38 51.2317 109.341 51.2153C109.306 51.1968 109.275 51.1729 109.25 51.1449L106.77 48.3555C106.77 48.3995 106.77 48.4405 106.77 48.4816C106.77 48.5227 106.77 48.5608 106.77 48.596V51.2358H106.284V47.5313H106.586C106.619 47.5313 106.651 47.5373 106.681 47.5489Z" fill="#AFB1B8"/>
<path d="M114.036 47.5312V47.9389H111.978V49.162H113.646V49.555H111.978V50.8191H114.036V51.2268H111.38V47.5312H114.036Z" fill="#AFB1B8"/>
<path d="M53.1618 24.6554L78.9568 30.9787V53.1367L53.1618 46.8163V24.6554ZM51.5073 22.7666V47.8927L80.6079 55.0284V29.9053L51.5073 22.7666Z" fill="#AFB1B8"/>
<path d="M67.1039 66.6919L38 59.5502V34.4268L67.1039 41.5655V66.6919Z" fill="#AFB1B8"/>
<path d="M51.9897 24.3709L77.4484 30.6149L66.6215 39.9648L41.1594 33.7178L51.9897 24.3709ZM51.5073 22.7666L38 34.4276L67.1039 41.5661L80.6078 29.9051L51.5073 22.7666Z" fill="#AFB1B8"/>
<path d="M68.7415 65.2786L80.6078 55.0314L68.7415 52.1191V65.2786Z" fill="#AFB1B8"/>
</svg>
