<svg width="170" height="92" viewBox="0 0 170 92" fill="none" xmlns="http://www.w3.org/2000/svg">
<rect x="0.5" y="0.5" width="169" height="91" rx="3.5" stroke="#AFB1B8"/>
<path d="M68.4063 65.1018C68.4222 65.1022 68.4379 65.1053 68.4524 65.111C68.4669 65.1167 68.4799 65.1248 68.4908 65.135L68.7089 65.3435C68.5396 65.5122 68.3304 65.6472 68.0955 65.7391C67.8204 65.8395 67.5239 65.8879 67.2257 65.8813C66.9455 65.8863 66.6671 65.8411 66.4078 65.7486C66.1739 65.6636 65.9638 65.536 65.7916 65.3743C65.6159 65.2065 65.4805 65.01 65.3935 64.7962C65.2982 64.5578 65.2512 64.3069 65.2545 64.0546C65.2506 63.8007 65.3015 63.5483 65.4044 63.3107C65.4997 63.0955 65.6433 62.8989 65.827 62.7326C66.0132 62.5694 66.2359 62.4412 66.4814 62.3558C66.7499 62.2654 67.0359 62.2203 67.3239 62.2232C67.5914 62.2175 67.8575 62.2586 68.1064 62.344C68.3223 62.4254 68.5206 62.5384 68.6926 62.6781L68.5099 62.9008C68.4973 62.9165 68.4816 62.9301 68.4635 62.941C68.442 62.9539 68.4159 62.9598 68.3899 62.9576C68.3616 62.9559 68.3343 62.9478 68.3109 62.9339L68.2127 62.8747L68.0764 62.7989C68.0175 62.7707 67.9565 62.7462 67.8937 62.7255C67.8128 62.7003 67.7299 62.6805 67.6456 62.6662C67.5386 62.6491 67.4299 62.6412 67.3211 62.6425C67.1138 62.6403 66.908 62.6741 66.7159 62.742C66.5367 62.805 66.375 62.9003 66.2415 63.0216C66.1055 63.1507 66.0007 63.3021 65.9334 63.467C65.8566 63.6556 65.8187 63.8545 65.8216 64.0546C65.8183 64.2578 65.8561 64.4598 65.9334 64.6516C65.9999 64.8151 66.1027 64.9656 66.236 65.0947C66.3609 65.215 66.5157 65.309 66.6886 65.3695C66.8666 65.4336 67.0576 65.4659 67.2503 65.4643C67.3615 65.4658 67.4728 65.4594 67.5829 65.4453C67.7627 65.4263 67.9351 65.372 68.0873 65.2866C68.1636 65.2429 68.2356 65.1937 68.3027 65.1397C68.3307 65.1165 68.3676 65.103 68.4063 65.1018Z" fill="#AFB1B8"/>
<path d="M74.7044 64.0537C74.7078 64.3051 74.6579 64.5548 74.5572 64.7905C74.4684 65.0042 74.3284 65.1992 74.1465 65.3625C73.9646 65.5259 73.745 65.6539 73.5021 65.7381C72.9683 65.915 72.3782 65.915 71.8444 65.7381C71.603 65.6526 71.3848 65.5243 71.2037 65.3614C71.0219 65.1951 70.8809 64.9984 70.7893 64.7834C70.5929 64.3062 70.5929 63.7846 70.7893 63.3074C70.8823 63.0922 71.0231 62.895 71.2037 62.727C71.3864 62.5693 71.6045 62.4459 71.8444 62.3646C72.3775 62.1845 72.969 62.1845 73.5021 62.3646C73.7443 62.45 73.9634 62.5783 74.1455 62.7412C74.325 62.9059 74.465 63.1 74.5572 63.3122C74.6582 63.5494 74.7081 63.8008 74.7044 64.0537ZM74.1319 64.0537C74.1362 63.8526 74.1011 63.6523 74.0283 63.4614C73.9672 63.2979 73.8679 63.1471 73.7366 63.0184C73.6087 62.8967 73.4513 62.8012 73.2758 62.7389C72.8879 62.6093 72.4586 62.6093 72.0707 62.7389C71.8952 62.8012 71.7378 62.8967 71.6099 63.0184C71.4768 63.1463 71.3764 63.2973 71.3155 63.4614C71.1768 63.8471 71.1768 64.2603 71.3155 64.646C71.377 64.8098 71.4773 64.9607 71.6099 65.089C71.7379 65.2099 71.8953 65.3046 72.0707 65.3661C72.4593 65.4924 72.8872 65.4924 73.2758 65.3661C73.4512 65.3046 73.6086 65.2099 73.7366 65.089C73.8673 64.96 73.9665 64.8093 74.0283 64.646C74.1015 64.4551 74.1365 64.2548 74.1319 64.0537Z" fill="#AFB1B8"/>
<path d="M79.0013 64.6746L79.0586 64.8072C79.0804 64.7599 79.0995 64.7172 79.1213 64.6746C79.1421 64.63 79.1657 64.5865 79.1922 64.5443L80.5854 62.3437C80.6127 62.3058 80.6372 62.2821 80.6645 62.275C80.7015 62.2652 80.7403 62.2612 80.779 62.2632H81.1907V65.8424H80.7026V63.2107C80.7026 63.1775 80.7026 63.1396 80.7026 63.0994C80.7 63.0583 80.7 63.0172 80.7026 62.9762L79.3012 65.2076C79.2834 65.241 79.255 65.2692 79.2192 65.289C79.1834 65.3087 79.1418 65.3191 79.0995 65.3189H79.0204C78.9779 65.3194 78.9362 65.3091 78.9004 65.2894C78.8646 65.2696 78.8362 65.2412 78.8186 65.2076L77.3763 62.962C77.3763 63.0046 77.3763 63.0472 77.3763 63.0899C77.3763 63.1325 77.3763 63.1704 77.3763 63.2036V65.8353H76.9047V62.2632H77.3164C77.355 62.2612 77.3938 62.2652 77.4309 62.275C77.4647 62.2896 77.4916 62.3139 77.5072 62.3437L78.9304 64.5467C78.9584 64.5874 78.9821 64.6302 79.0013 64.6746Z" fill="#AFB1B8"/>
<path d="M84.2444 64.4967V65.8374H83.6991V62.2631H84.9151C85.1446 62.2592 85.3735 62.2856 85.594 62.3412C85.7705 62.3847 85.9341 62.4606 86.0739 62.5639C86.195 62.6607 86.2883 62.7807 86.3465 62.9145C86.4109 63.0603 86.4423 63.2155 86.4392 63.3716C86.4416 63.5284 86.4073 63.6839 86.3383 63.8288C86.2728 63.9659 86.1721 64.0882 86.0439 64.1864C85.904 64.294 85.7395 64.3747 85.5613 64.4233C85.349 64.4822 85.127 64.5103 84.9042 64.5062L84.2444 64.4967ZM84.2444 64.113H84.9042C85.0475 64.1146 85.1902 64.0962 85.3268 64.0585C85.4395 64.0256 85.5433 63.9732 85.6322 63.9046C85.7141 63.839 85.7775 63.758 85.8176 63.6677C85.8622 63.5722 85.8844 63.4699 85.883 63.3669C85.8893 63.2675 85.8707 63.1681 85.8283 63.0757C85.7859 62.9832 85.7208 62.8999 85.6376 62.8315C85.4293 62.6902 85.1677 62.6218 84.9042 62.6397H84.2444V64.113Z" fill="#AFB1B8"/>
<path d="M91.5731 65.8423H91.1423C91.0991 65.8437 91.0566 65.832 91.0223 65.8091C90.9914 65.7868 90.9671 65.7584 90.9514 65.7262L90.5806 64.8615H88.7185L88.334 65.7262C88.3199 65.7578 88.2964 65.7856 88.2659 65.8067C88.2312 65.831 88.1877 65.8436 88.1432 65.8423H87.7124L89.3483 62.2627H89.9154L91.5731 65.8423ZM88.8739 64.5133H90.4116L89.7627 63.0563C89.7131 62.9467 89.6721 62.8343 89.64 62.7199L89.5773 62.9071C89.5582 62.9639 89.5364 63.016 89.5173 63.0587L88.8739 64.5133Z" fill="#AFB1B8"/>
<path d="M93.9288 62.2794C93.9614 62.2949 93.9894 62.3168 94.0106 62.3433L96.3962 65.0416C96.3962 64.9989 96.3962 64.9563 96.3962 64.916C96.3962 64.8758 96.3962 64.8355 96.3962 64.7976V62.2628H96.8843V65.8423H96.6116C96.5729 65.8433 96.5345 65.836 96.4998 65.821C96.4662 65.8039 96.4365 65.7814 96.4126 65.7546L94.0297 63.0587C94.0323 63.0998 94.0323 63.1409 94.0297 63.1819C94.0297 63.2222 94.0297 63.2577 94.0297 63.2909V65.8423H93.5416V62.2628H93.8306C93.8644 62.262 93.8979 62.2676 93.9288 62.2794Z" fill="#AFB1B8"/>
<path d="M100.903 64.4193V65.8407H100.358V64.4193L98.8501 62.2635H99.3381C99.3802 62.2614 99.4218 62.2723 99.4554 62.2943C99.4851 62.3173 99.51 62.3446 99.529 62.3749L100.472 63.7655C100.511 63.8247 100.543 63.8792 100.571 63.9313C100.598 63.9834 100.62 64.0332 100.639 64.0829L100.71 63.9289C100.736 63.8726 100.767 63.818 100.802 63.7655L101.732 62.3654C101.752 62.3375 101.775 62.312 101.803 62.2896C101.835 62.265 101.877 62.2523 101.92 62.2541H102.414L100.903 64.4193Z" fill="#AFB1B8"/>
<path d="M78.7314 56.2563C78.9686 56.2823 79.2086 56.3036 79.4512 56.3226C83.1301 54.8927 86.2422 52.5525 88.3987 49.5943C90.5552 46.6362 91.6603 43.1914 91.5759 39.6905L87.5216 36.168C88.346 39.8953 87.9604 43.7483 86.408 47.2961C84.8555 50.8438 82.1976 53.9462 78.7314 56.2563Z" fill="#AFB1B8"/>
<path d="M77.2837 56.0929L77.3928 56.1118C81.0966 53.81 83.9205 50.5957 85.4993 46.8845C87.078 43.1733 87.3389 39.1359 86.2483 35.2945L80.4737 30.2773C82.8094 34.4014 83.7495 39.0168 83.1848 43.5868C82.6201 48.1568 80.5737 52.4936 77.2837 56.0929Z" fill="#AFB1B8"/>
<path d="M96.868 43.8271C95.8869 47.6737 93.5042 51.1429 90.0736 53.7195C89.0717 54.4761 87.991 55.1502 86.8455 55.733C89.6389 55.0196 92.2065 53.7584 94.3503 52.0466C96.494 50.3347 98.1567 48.218 99.21 45.8596L96.868 43.8271Z" fill="#AFB1B8"/>
<path d="M95.949 43.2604L92.6146 40.3633C92.5508 43.6664 91.47 46.8944 89.4845 49.7117C87.499 52.5291 84.6813 54.833 81.3242 56.3841H81.3406C82.0887 56.3838 82.8362 56.3451 83.579 56.268C86.7164 55.1554 89.488 53.3853 91.6464 51.1156C93.8049 48.8459 95.283 46.1472 95.949 43.2604Z" fill="#AFB1B8"/>
<path d="M77.7663 28.1612L73.7883 24.7002C70.2322 25.8941 67.1738 27.9931 65.0134 30.7223C62.8529 33.4515 61.6912 36.6838 61.6801 39.9961V39.9961C61.6934 43.6562 63.1113 47.2079 65.7093 50.089C68.3073 52.9702 71.9371 55.0162 76.0241 55.9033C79.6725 52.0412 81.8086 47.269 82.1219 42.28C82.4352 37.291 80.9094 32.3452 77.7663 28.1612Z" fill="#AFB1B8"/>
<path d="M105.14 42.7277C105.126 38.3852 103.134 34.2242 99.5997 31.1535C96.0656 28.0829 91.2764 26.3524 86.2784 26.3399C83.9688 26.3378 81.6789 26.7081 79.5249 27.4319L103.88 48.593C104.714 46.7225 105.142 44.7337 105.14 42.7277Z" fill="#AFB1B8"/>
</svg>
