<svg width="170" height="92" viewBox="0 0 170 92" fill="none" xmlns="http://www.w3.org/2000/svg">
<rect x="0.5" y="0.5" width="169" height="91" rx="3.5" stroke="#2196F3"/>
<path d="M56.1462 37.1035H56.1433C53.7453 37.1035 51.8013 38.8311 51.8013 40.9622V40.9647C51.8013 43.0958 53.7453 44.8234 56.1433 44.8234H56.1462C58.5442 44.8234 60.4882 43.0958 60.4882 40.9647V40.9622C60.4882 38.8311 58.5442 37.1035 56.1462 37.1035Z" fill="#2196F3"/>
<path d="M88.195 35.8695C88.1882 32.9095 86.8623 30.0725 84.5074 27.9792C82.1525 25.8859 78.9604 24.7069 75.6297 24.7002V24.7002C72.298 24.7056 69.1045 25.884 66.7484 27.9774C64.3922 30.0708 63.0655 32.9087 63.0587 35.8695V52.1924C63.0587 52.1924 88.1922 49.7047 88.195 35.8721V35.8695Z" fill="#2196F3"/>
<path d="M43 57.5495C43.006 59.6091 43.9291 61.5828 45.5676 63.0394C47.2061 64.496 49.4267 65.317 51.7442 65.3231C54.0612 65.317 56.2814 64.4963 57.9197 63.0403C59.5581 61.5843 60.4816 59.6112 60.4884 57.552V46.1943C60.4884 46.1943 43 47.9266 43 57.5495ZM51.7442 59.5844C51.2913 59.5844 50.8486 59.4651 50.472 59.2415C50.0955 59.0179 49.802 58.7001 49.6287 58.3282C49.4554 57.9564 49.41 57.5472 49.4984 57.1525C49.5867 56.7577 49.8048 56.3951 50.125 56.1105C50.4453 55.8259 50.8533 55.6321 51.2975 55.5536C51.7416 55.4751 52.202 55.5154 52.6205 55.6694C53.0389 55.8234 53.3965 56.0843 53.6481 56.4189C53.8997 56.7535 54.034 57.147 54.034 57.5495C54.0351 57.8173 53.9767 58.0828 53.8622 58.3306C53.7476 58.5783 53.5791 58.8036 53.3664 58.9933C53.1536 59.1831 52.9008 59.3337 52.6224 59.4364C52.3441 59.5392 52.0456 59.5921 51.7442 59.5921V59.5844Z" fill="#2196F3"/>
<path d="M69.4177 58.4639H67.7302V60.207H66.8513V55.9414H69.6287V56.6533H67.7302V57.7549H69.4177V58.4639ZM73.6423 58.1709C73.6423 58.5908 73.5681 58.959 73.4197 59.2754C73.2712 59.5918 73.0583 59.8359 72.781 60.0078C72.5056 60.1797 72.1892 60.2656 71.8318 60.2656C71.4783 60.2656 71.1628 60.1807 70.8855 60.0107C70.6082 59.8408 70.3933 59.5986 70.241 59.2842C70.0886 58.9678 70.0115 58.6045 70.0095 58.1943V57.9834C70.0095 57.5635 70.0847 57.1943 70.2351 56.876C70.3875 56.5557 70.6013 56.3105 70.8767 56.1406C71.1541 55.9688 71.4705 55.8828 71.8259 55.8828C72.1814 55.8828 72.4968 55.9688 72.7722 56.1406C73.0496 56.3105 73.2634 56.5557 73.4138 56.876C73.5662 57.1943 73.6423 57.5625 73.6423 57.9805V58.1709ZM72.7517 57.9775C72.7517 57.5303 72.6716 57.1904 72.5115 56.958C72.3513 56.7256 72.1228 56.6094 71.8259 56.6094C71.531 56.6094 71.3035 56.7246 71.1433 56.9551C70.9832 57.1836 70.9021 57.5195 70.9001 57.9629V58.1709C70.9001 58.6064 70.9802 58.9443 71.1404 59.1846C71.3005 59.4248 71.531 59.5449 71.8318 59.5449C72.1267 59.5449 72.3533 59.4297 72.5115 59.1992C72.6697 58.9668 72.7498 58.6289 72.7517 58.1855V57.9775ZM76.4929 59.0879C76.4929 58.9219 76.4343 58.7949 76.3171 58.707C76.2 58.6172 75.989 58.5234 75.6843 58.4258C75.3796 58.3262 75.1384 58.2285 74.9607 58.1328C74.4763 57.8711 74.2341 57.5186 74.2341 57.0752C74.2341 56.8447 74.2986 56.6396 74.4275 56.46C74.5583 56.2783 74.7449 56.1367 74.9871 56.0352C75.2312 55.9336 75.5046 55.8828 75.8074 55.8828C76.1121 55.8828 76.3835 55.9385 76.6218 56.0498C76.8601 56.1592 77.0447 56.3145 77.1755 56.5156C77.3083 56.7168 77.3748 56.9453 77.3748 57.2012H76.4958C76.4958 57.0059 76.4343 56.8545 76.3113 56.7471C76.1882 56.6377 76.0154 56.583 75.7927 56.583C75.5779 56.583 75.4109 56.6289 75.2917 56.7207C75.1726 56.8105 75.113 56.9297 75.113 57.0781C75.113 57.2168 75.1824 57.333 75.321 57.4268C75.4617 57.5205 75.6677 57.6084 75.9392 57.6904C76.4392 57.8408 76.8035 58.0273 77.032 58.25C77.2605 58.4727 77.3748 58.75 77.3748 59.082C77.3748 59.4512 77.2351 59.7412 76.9558 59.9521C76.6765 60.1611 76.3005 60.2656 75.8279 60.2656C75.4998 60.2656 75.2009 60.2061 74.9314 60.0869C74.6619 59.9658 74.4558 59.8008 74.3132 59.5918C74.1726 59.3828 74.1023 59.1406 74.1023 58.8652H74.9841C74.9841 59.3359 75.2654 59.5713 75.8279 59.5713C76.0369 59.5713 76.2 59.5293 76.3171 59.4453C76.4343 59.3594 76.4929 59.2402 76.4929 59.0879ZM81.1833 56.6533H79.8767V60.207H78.9978V56.6533H77.7087V55.9414H81.1833V56.6533ZM84.2537 58.3584H82.5662V59.501H84.5466V60.207H81.6873V55.9414H84.5408V56.6533H82.5662V57.6699H84.2537V58.3584ZM86.6414 58.6455H85.9412V60.207H85.0623V55.9414H86.6472C87.1511 55.9414 87.5398 56.0537 87.8132 56.2783C88.0867 56.5029 88.2234 56.8203 88.2234 57.2305C88.2234 57.5215 88.1599 57.7646 88.033 57.96C87.908 58.1533 87.7175 58.3076 87.4617 58.4229L88.3845 60.166V60.207H87.4412L86.6414 58.6455ZM85.9412 57.9336H86.6501C86.8708 57.9336 87.0417 57.8779 87.1628 57.7666C87.2839 57.6533 87.3445 57.498 87.3445 57.3008C87.3445 57.0996 87.2869 56.9414 87.1716 56.8262C87.0583 56.7109 86.8835 56.6533 86.6472 56.6533H85.9412V57.9336ZM91.2673 58.7041V60.207H90.3884V55.9414H92.0525C92.3728 55.9414 92.6541 56 92.8962 56.1172C93.1404 56.2344 93.3279 56.4014 93.4587 56.6182C93.5896 56.833 93.655 57.0781 93.655 57.3535C93.655 57.7715 93.5115 58.1016 93.2244 58.3438C92.9392 58.584 92.5437 58.7041 92.0378 58.7041H91.2673ZM91.2673 57.9922H92.0525C92.2849 57.9922 92.4617 57.9375 92.5828 57.8281C92.7058 57.7188 92.7673 57.5625 92.7673 57.3594C92.7673 57.1504 92.7058 56.9814 92.5828 56.8525C92.4597 56.7236 92.2898 56.6572 92.073 56.6533H91.2673V57.9922ZM96.8279 58.3584H95.1404V59.501H97.1208V60.207H94.2615V55.9414H97.115V56.6533H95.1404V57.6699H96.8279V58.3584ZM100.906 56.6533H99.5994V60.207H98.7205V56.6533H97.4314V55.9414H100.906V56.6533ZM103.976 58.3584H102.289V59.501H104.269V60.207H101.41V55.9414H104.263V56.6533H102.289V57.6699H103.976V58.3584ZM106.364 58.6455H105.664V60.207H104.785V55.9414H106.37C106.874 55.9414 107.262 56.0537 107.536 56.2783C107.809 56.5029 107.946 56.8203 107.946 57.2305C107.946 57.5215 107.883 57.7646 107.756 57.96C107.631 58.1533 107.44 58.3076 107.184 58.4229L108.107 60.166V60.207H107.164L106.364 58.6455ZM105.664 57.9336H106.373C106.594 57.9336 106.764 57.8779 106.885 57.7666C107.007 57.6533 107.067 57.498 107.067 57.3008C107.067 57.0996 107.01 56.9414 106.894 56.8262C106.781 56.7109 106.606 56.6533 106.37 56.6533H105.664V57.9336ZM110.829 59.0879C110.829 58.9219 110.77 58.7949 110.653 58.707C110.536 58.6172 110.325 58.5234 110.02 58.4258C109.716 58.3262 109.474 58.2285 109.297 58.1328C108.812 57.8711 108.57 57.5186 108.57 57.0752C108.57 56.8447 108.635 56.6396 108.763 56.46C108.894 56.2783 109.081 56.1367 109.323 56.0352C109.567 55.9336 109.841 55.8828 110.143 55.8828C110.448 55.8828 110.719 55.9385 110.958 56.0498C111.196 56.1592 111.381 56.3145 111.511 56.5156C111.644 56.7168 111.711 56.9453 111.711 57.2012H110.832C110.832 57.0059 110.77 56.8545 110.647 56.7471C110.524 56.6377 110.351 56.583 110.129 56.583C109.914 56.583 109.747 56.6289 109.628 56.7207C109.509 56.8105 109.449 56.9297 109.449 57.0781C109.449 57.2168 109.518 57.333 109.657 57.4268C109.798 57.5205 110.004 57.6084 110.275 57.6904C110.775 57.8408 111.139 58.0273 111.368 58.25C111.596 58.4727 111.711 58.75 111.711 59.082C111.711 59.4512 111.571 59.7412 111.292 59.9521C111.012 60.1611 110.636 60.2656 110.164 60.2656C109.836 60.2656 109.537 60.2061 109.267 60.0869C108.998 59.9658 108.792 59.8008 108.649 59.5918C108.509 59.3828 108.438 59.1406 108.438 58.8652H109.32C109.32 59.3359 109.601 59.5713 110.164 59.5713C110.373 59.5713 110.536 59.5293 110.653 59.4453C110.77 59.3594 110.829 59.2402 110.829 59.0879Z" fill="#2196F3"/>
</svg>
