<svg width="170" height="92" viewBox="0 0 170 92" fill="none" xmlns="http://www.w3.org/2000/svg">
<rect x="0.5" y="0.5" width="169" height="91" rx="3.5" stroke="#AFB1B8"/>
<path d="M58.7569 60.7349C59.0006 61.011 59.1304 61.3569 59.1236 61.7118C59.136 61.9434 59.0914 62.1745 58.993 62.3881C58.8947 62.6018 58.7451 62.7924 58.5554 62.9459C58.082 63.2732 57.4956 63.4333 56.9037 63.3966H54V57.2051H56.8442C57.4057 57.1709 57.9626 57.3163 58.42 57.6165C58.6036 57.7572 58.7491 57.9351 58.8448 58.1362C58.9406 58.3372 58.984 58.5559 58.9716 58.7749C58.9883 59.1164 58.8712 59.4522 58.6413 59.7216C58.4206 59.9676 58.1156 60.1382 57.7758 60.2056C58.161 60.2699 58.5087 60.4575 58.7569 60.7349ZM55.3511 59.8003H56.5667C56.843 59.819 57.1174 59.7459 57.3397 59.5946C57.431 59.5188 57.502 59.4249 57.5473 59.32C57.5925 59.2151 57.6108 59.1021 57.6007 58.9896C57.6093 58.8776 57.5906 58.7653 57.5461 58.6607C57.5015 58.5561 57.4322 58.4618 57.343 58.3847C57.1141 58.2291 56.8312 58.1549 56.5469 58.176H55.3511V59.8003ZM57.4587 62.1746C57.5562 62.0971 57.6329 62 57.6828 61.8908C57.7326 61.7817 57.7543 61.6635 57.7461 61.5455C57.7535 61.4261 57.7309 61.3067 57.6799 61.1965C57.6289 61.0864 57.551 60.9885 57.4521 60.9103C57.2142 60.7488 56.9217 60.6696 56.6262 60.6865H55.3511V62.3894H56.6427C56.9334 62.4047 57.2212 62.329 57.4587 62.1746Z" fill="#AFB1B8"/>
<path d="M64.5709 63.3973L62.9886 60.9776H62.394V63.3973H61.033V57.2058H63.6096C64.2591 57.1643 64.9012 57.3527 65.4034 57.7321C65.7635 58.0682 65.9808 58.511 66.0159 58.9807C66.051 59.4504 65.9018 59.9162 65.595 60.294C65.2771 60.6275 64.8428 60.8498 64.3661 60.9231L66.0508 63.3973H64.5709ZM62.394 60.1337H63.5072C64.2802 60.1337 64.6667 59.8212 64.6667 59.1961C64.6746 59.0684 64.6534 58.9407 64.6045 58.8209C64.5556 58.7011 64.48 58.592 64.3826 58.5004C64.1383 58.3144 63.8237 58.2242 63.5072 58.2494H62.3807L62.394 60.1337Z" fill="#AFB1B8"/>
<path d="M72.0101 62.1502H69.298L68.819 63.3963H67.392L69.8827 57.2744H71.4254L73.9063 63.3963H72.4792L72.0101 62.1502ZM71.6467 61.2125L70.6557 58.5992L69.6647 61.2125H71.6467Z" fill="#AFB1B8"/>
<path d="M81.3225 63.3965H79.9714L76.9421 59.1862V63.3965H75.5944V57.2051H76.9421L79.9714 61.4396V57.2051H81.3225V63.3965Z" fill="#AFB1B8"/>
<path d="M89.0326 61.9148C88.7532 62.3822 88.3276 62.7625 87.8103 63.0067C87.2222 63.2786 86.5695 63.4127 85.9109 63.3968H83.506V57.2054H85.9109C86.5684 57.1896 87.2202 57.3204 87.8103 57.5865C88.3275 57.8251 88.7536 58.2016 89.0326 58.6663C89.3107 59.1698 89.4556 59.7262 89.4556 60.2905C89.4556 60.8548 89.3107 61.4112 89.0326 61.9148ZM87.4866 61.7665C87.8722 61.3552 88.0842 60.8311 88.0842 60.289C88.0842 59.7469 87.8722 59.2228 87.4866 58.8115C87.0205 58.4389 86.4127 58.2498 85.7952 58.2852H84.8571V62.2928H85.7952C86.4127 62.3282 87.0205 62.1391 87.4866 61.7665Z" fill="#AFB1B8"/>
<path d="M72.8558 22.7666C72.8558 22.7666 90.2945 28.7947 89.9245 37.5178V52.2721C89.9245 52.2721 72.4991 46.2409 72.8624 37.5178L72.8558 22.7666Z" fill="#AFB1B8"/>
<path d="M105.46 48.8181C108.754 46.7428 112.563 45.4574 116.54 45.0796V40.4609C111.958 42.0779 108.071 45.0098 105.46 48.8181Z" fill="#AFB1B8"/>
<path d="M103.482 50.2094C106.177 45.2395 110.85 41.4045 116.54 39.493V26.1846C116.54 26.1846 91.705 34.7716 92.2303 47.1938V68.2C92.2303 68.2 93.3369 67.8159 95.0778 67.096C95.0778 66.4246 95.0778 65.747 95.1571 65.0665C95.6711 59.2995 98.6654 53.9554 103.482 50.2094Z" fill="#AFB1B8"/>
<path d="M101.12 58.013C101.25 56.5561 101.541 55.1151 101.989 53.7119C98.9896 56.947 97.1734 60.9613 96.7956 65.1905C96.7592 65.5897 96.7394 65.989 96.7295 66.4003C98.14 65.7803 99.7818 65.006 101.506 64.0956C101.066 62.0947 100.936 60.0471 101.12 58.013Z" fill="#AFB1B8"/>
<path d="M102.107 58.0886C101.942 59.9289 102.045 61.7812 102.415 63.5965C109.2 59.8792 116.824 54.1354 116.53 47.1938V46.5889C111.682 47.0855 107.147 49.0259 103.62 52.1119C102.795 54.0243 102.285 56.0386 102.107 58.0886Z" fill="#AFB1B8"/>
</svg>
