
<svg xmlns="http://www.w3.org/2000/svg">

<!-- FEATURES ICONS -->
<!-- antenna -->
	<symbol viewBox="0 0 70 70" fill="none" id="antenna">
		<path  d="M67.3162 48.3385L48.8467 29.7337L50.8966 19.6373C51.4255 19.8438 51.9878 19.9517 52.5556 19.9558H52.5696C55.1776 19.9866 57.3169 17.8974 57.3478 15.2893C57.3787 12.6812 55.2894 10.542 52.6813 10.5111C50.0732 10.4803 47.934 12.5695 47.903 15.1776C47.8965 15.7357 47.9888 16.2905 48.1759 16.8163L37.3259 18.1405L19.6276 0.35C19.4104 0.128479 19.1141 0.00247917 18.8039 0C18.4976 0.00160417 18.2044 0.123521 17.9872 0.3395L14.6786 3.6295C14.2231 4.08508 14.2231 4.82358 14.6786 5.27917L16.4589 7.08517C9.56156 19.7681 11.8018 35.4741 21.9702 45.7228C22.0636 45.8121 22.1718 45.8843 22.2899 45.9363C22.2164 46.3311 22.178 46.7317 22.1756 47.1333V60.6667H8.17556C4.95556 60.6705 2.34602 63.28 2.34222 66.5V68.8333C2.34222 69.4776 2.8646 70 3.50889 70H57.1756C57.8199 70 58.3422 69.4776 58.3422 68.8333V66.5C58.3384 63.28 55.7289 60.6705 52.5089 60.6667H38.5089V54.6688C40.7021 55.1288 42.9367 55.3633 45.1776 55.3688C50.5547 55.363 55.8463 54.0225 60.5776 51.4675L62.3672 53.2677C62.5844 53.4892 62.8807 53.6152 63.1909 53.6177C63.4971 53.6161 63.7904 53.4941 64.0076 53.2782L67.3162 49.9882C67.7717 49.5326 67.7717 48.7941 67.3162 48.3385ZM50.9246 13.6348C51.8382 12.726 53.3156 12.7301 54.2243 13.6437C55.1332 14.5574 55.1291 16.0348 54.2154 16.9435C53.7781 17.3785 53.1863 17.6226 52.5694 17.6225H52.5624C51.2738 17.6158 50.2345 16.5658 50.2412 15.2771C50.2444 14.6602 50.4917 14.0699 50.9291 13.6348H50.9246ZM48.1782 21.301L46.8692 27.7445L44.2979 25.158L48.1782 21.301ZM46.8529 19.3282L42.6529 23.5037L39.4037 20.237L46.8529 19.3282ZM52.5089 63C54.4419 63 56.0089 64.567 56.0089 66.5V67.6667H4.67556V66.5C4.67556 64.567 6.24254 63 8.17556 63H52.5089ZM36.1756 58.3333V60.6667H24.5089V58.3333H36.1756ZM24.5089 56V47.1333C24.5089 44.303 27.1257 42 30.3422 42C33.5587 42 36.1756 44.303 36.1756 47.1333V56H24.5089ZM38.5089 52.29V47.1333C38.5089 43.0162 34.8456 39.6667 30.3422 39.6667C27.4305 39.622 24.7078 41.1041 23.1649 43.5738C14.2886 34.2249 12.2898 20.2875 18.1805 8.82073L58.8719 49.7455C52.5885 52.9419 45.3857 53.8418 38.5089 52.29ZM63.2037 50.7943L61.5599 49.1412L18.7922 6.11567L17.1414 4.46133L18.7922 2.81633L36.1499 20.272C36.1581 20.272 36.1627 20.2872 36.1709 20.293L64.8592 49.1493L63.2037 50.7943Z" fill="#212121"/>
		<path d="M30.3527 44.3335H30.3422C28.4092 44.3306 26.8399 45.8952 26.837 47.8283C26.8341 49.7613 28.3987 51.3306 30.3317 51.3335H30.3422C32.2752 51.3364 33.8446 49.7718 33.8475 47.8388C33.8504 45.9057 32.2857 44.3364 30.3527 44.3335ZM31.1694 48.6607C30.9498 48.8791 30.6521 49.0013 30.3422 49.0002C29.6979 48.9968 29.1783 48.4718 29.1817 47.8275C29.1833 47.5191 29.307 47.2239 29.5256 47.0063C29.7427 46.7904 30.036 46.6684 30.3422 46.6668C30.9865 46.6702 31.5061 47.1952 31.5028 47.8395C31.5012 48.1479 31.3775 48.4431 31.1589 48.6607H31.1694Z" fill="#2196F3"/>
	</symbol>

    <!-- clock -->

<symbol  viewBox="0 0 70 70" fill="none" id="clock">
<g clip-path="url(#clip0_707_589)">
<path d="M68.4614 33.4715C68.4576 14.9819 53.4656 -0.00373771 34.9754 6.99302e-07C16.4858 0.00373911 1.50017 14.9963 1.50391 33.4859C1.50711 48.0502 10.9252 60.9413 24.7995 65.3713C24.9319 65.413 25.0697 65.4343 25.2081 65.4338C25.4719 65.4333 25.7304 65.3628 25.9573 65.2287C26.2527 65.0541 26.4732 64.7764 26.5768 64.449L35.0315 37.6521C37.3429 37.6404 39.2068 35.7568 39.1945 33.4459C39.1827 31.1345 37.2997 29.2706 34.9883 29.2824C34.3666 29.285 33.753 29.4282 33.1944 29.7011L22.0251 18.5302C21.4707 17.9951 20.5879 18.0106 20.0528 18.5644C19.5305 19.1054 19.5305 19.962 20.0528 20.503L31.2162 31.6792C30.3596 33.4277 30.8493 35.5383 32.3895 36.7303L24.3338 62.2647C8.41354 56.4002 0.261689 38.7405 6.12618 22.8203C11.9907 6.90002 29.6503 -1.25183 45.5706 4.61266C61.4909 10.4771 69.6427 28.1374 63.7782 44.0571C60.913 51.8351 55.0261 58.1252 47.4548 61.4989L46.5842 57.3989C46.4251 56.6454 45.6844 56.1636 44.9308 56.3233C44.6931 56.3741 44.4726 56.4857 44.291 56.6475L35.8978 64.1409C35.322 64.653 35.2708 65.5347 35.7835 66.1105C35.9501 66.2974 36.1637 66.4362 36.403 66.5126L47.1188 69.9327C47.8521 70.1682 48.6377 69.765 48.8732 69.0312C48.948 68.7994 48.9603 68.5527 48.9101 68.3145L48.0545 64.2915C60.4452 59.0678 68.4902 46.918 68.4614 33.4715ZM34.9829 32.0766C35.753 32.0766 36.3779 32.7014 36.3779 33.4715C36.3779 34.2422 35.753 34.8665 34.9829 34.8665C34.2123 34.8665 33.588 34.2422 33.588 33.4715C33.588 32.7014 34.2123 32.0766 34.9829 32.0766ZM39.5774 64.5916L44.3551 60.3298L45.6737 66.543L39.5774 64.5916Z" fill="#212121"/>
<path d="M33.5879 6.96722V9.75714C33.5879 10.5278 34.2122 11.1521 34.9828 11.1521C35.753 11.1521 36.3778 10.5278 36.3778 9.75714V6.96722C36.3778 6.19711 35.753 5.57227 34.9828 5.57227C34.2122 5.57227 33.5879 6.19711 33.5879 6.96722Z" fill="#2196F3"/>
<path d="M8.4787 32.0767C7.70805 32.0767 7.08374 32.7015 7.08374 33.4716C7.08374 34.2423 7.70805 34.8666 8.4787 34.8666H11.2686C12.0393 34.8666 12.6636 34.2423 12.6636 33.4716C12.6636 32.7015 12.0393 32.0767 11.2686 32.0767H8.4787Z" fill="#2196F3"/>
<path d="M61.4865 34.8666C62.2572 34.8666 62.8815 34.2423 62.8815 33.4716C62.8815 32.7015 62.2572 32.0767 61.4865 32.0767H58.6966C57.9265 32.0767 57.3016 32.7015 57.3016 33.4716C57.3016 34.2423 57.9265 34.8666 58.6966 34.8666H61.4865Z" fill="#2196F3"/>
</g>
<defs>
<clipPath id="clip0_707_589">
<rect width="70" height="70" fill="white"/>
</clipPath>
</defs>
</symbol>


<!-- diagram -->
<symbol viewBox="0 0 70 70" fill="none" id="diagram">
<g clip-path="url(#clip0_707_599)">
<path d="M32.6495 32.7349H34.9816V43.2294H32.6495V32.7349Z" fill="#2196F3"/>
<path d="M41.978 37.3994H44.3101V43.2297H41.978V37.3994Z" fill="#2196F3"/>
<path d="M23.3212 40.8975H25.6533V43.2296H23.3212V40.8975Z" fill="#2196F3"/>
<path d="M16.3248 39.7314H18.6569V43.2296H16.3248V39.7314Z" fill="#2196F3"/>
<path d="M3.49817 61.8866H59.4689C61.4007 61.8866 62.967 60.3203 62.967 58.3884V53.7242C62.967 51.7923 61.4007 50.226 59.4689 50.226H58.3028V21.1469L64.9262 14.8725C66.4635 15.6304 68.3242 15.1703 69.3302 13.7816C70.3369 12.3935 70.1957 10.4822 68.9966 9.2569C67.7975 8.03163 65.8901 7.84886 64.4798 8.82418C63.0701 9.80007 62.569 11.6499 63.2933 13.2037L58.3028 17.9346V15.2443C58.3028 13.3125 56.7365 11.7462 54.8046 11.7462H8.16239C6.23054 11.7462 4.66422 13.3125 4.66422 15.2443V50.226H3.49817C1.56632 50.226 0 51.7923 0 53.7242V58.3884C0 60.3203 1.56632 61.8866 3.49817 61.8866ZM66.4652 10.5801C67.1091 10.5801 67.6312 11.1022 67.6312 11.7462C67.6312 12.3901 67.1091 12.9122 66.4652 12.9122C65.8212 12.9122 65.2991 12.3901 65.2991 11.7462C65.2991 11.1022 65.8212 10.5801 66.4652 10.5801ZM6.99634 15.2443C6.99634 14.6004 7.51844 14.0783 8.16239 14.0783H54.8046C55.4486 14.0783 55.9707 14.6004 55.9707 15.2443V20.1414L53.6386 22.3574V17.5764C53.6386 16.9325 53.1165 16.4104 52.4725 16.4104H10.4945C9.85055 16.4104 9.32845 16.9325 9.32845 17.5764V46.7278C9.32845 47.3718 9.85055 47.8939 10.4945 47.8939H52.4725C53.1165 47.8939 53.6386 47.3718 53.6386 46.7278V25.5652L55.9707 23.3555V50.226H6.99634V15.2443ZM17.4908 30.4031C15.9131 30.3985 14.5279 31.4495 14.1083 32.9703C13.6886 34.4911 14.3383 36.1041 15.6951 36.9092C17.0513 37.7143 18.7793 37.5121 19.9129 36.415L23.9662 38.4487C24.4371 38.6844 25.0081 38.574 25.3583 38.1806L33.9745 28.4871L42.4443 34.8338C42.8987 35.1743 43.5329 35.1379 43.9452 34.7479L51.3065 27.7749V45.5618H11.6606V18.7425H51.3065V24.562L43.0564 32.3748L34.5154 25.9717C34.0303 25.6084 33.3476 25.6768 32.9445 26.1294L24.2099 35.9572L20.9446 34.3243C20.9685 34.1842 20.9833 34.043 20.989 33.9012C20.989 31.9694 19.4227 30.4031 17.4908 30.4031ZM18.6569 33.9012C18.6569 34.5452 18.1348 35.0673 17.4908 35.0673C16.8469 35.0673 16.3248 34.5452 16.3248 33.9012C16.3248 33.2573 16.8469 32.7352 17.4908 32.7352C18.1348 32.7352 18.6569 33.2573 18.6569 33.9012ZM25.6532 52.5581H37.3138V53.7242C37.3138 54.3681 36.7917 54.8902 36.1477 54.8902H26.8193C26.1753 54.8902 25.6532 54.3681 25.6532 53.7242V52.5581ZM2.33211 53.7242C2.33211 53.0802 2.85422 52.5581 3.49817 52.5581H23.3211V53.7242C23.3211 55.656 24.8874 57.2223 26.8193 57.2223H36.1477C38.0796 57.2223 39.6459 55.656 39.6459 53.7242V52.5581H59.4689C60.1128 52.5581 60.6349 53.0802 60.6349 53.7242V58.3884C60.6349 59.0324 60.1128 59.5545 59.4689 59.5545H3.49817C2.85422 59.5545 2.33211 59.0324 2.33211 58.3884V53.7242Z" fill="#212121"/>
</g>
<defs>
<clipPath id="clip0_707_599">
<rect width="70" height="70" fill="white"/>
</clipPath>
</defs>
</symbol>   

<!-- astranaut -->
<symbol  viewBox="0 0 70 70" fill="none" id="astranaut">
<path d="M69.9432 9.89619C69.8055 9.47495 69.4416 9.16706 69.0017 9.1028L64.8227 8.49494L62.9525 4.7079C62.5606 3.90987 61.2527 3.90987 60.8607 4.7079L58.9905 8.49494L54.8114 9.10293C54.3715 9.16706 54.0076 9.47399 53.8687 9.89632C53.7322 10.3187 53.8453 10.783 54.1638 11.0922L57.1891 14.0405L56.4751 18.2032C56.4005 18.6407 56.5801 19.0829 56.9383 19.3443C57.3012 19.608 57.7748 19.6406 58.168 19.4329L61.9061 17.467L65.6441 19.4329C65.8145 19.5227 66.0024 19.567 66.1879 19.567C66.4293 19.567 66.6709 19.4924 66.874 19.3441C67.2333 19.0829 67.4129 18.6406 67.3372 18.2031L66.6232 14.0403L69.6484 11.0921C69.9653 10.7817 70.0798 10.3185 69.9432 9.89619ZM64.5556 12.7989C64.2815 13.0661 64.1554 13.4534 64.2207 13.8314L64.6384 16.2686L62.4498 15.1182C62.2795 15.0284 62.0928 14.9841 61.9061 14.9841C61.7194 14.9841 61.5339 15.0284 61.3623 15.1182L59.1736 16.2686L59.5912 13.8314C59.6566 13.4534 59.5305 13.0673 59.2564 12.7989L57.4842 11.0723L59.932 10.7164C60.3123 10.6616 60.6402 10.4224 60.8105 10.0782L61.9048 7.86151L62.9991 10.0782C63.1695 10.4223 63.4974 10.6616 63.8777 10.7164L66.3254 11.0723L64.5556 12.7989Z" fill="#2196F3"/>
<path d="M57.1669 44.8921H54.8335V47.2255H57.1669V44.8921Z" fill="#2196F3"/>
<path d="M57.1669 49.5591H54.8335V51.8925H57.1669V49.5591Z" fill="#2196F3"/>
<path d="M59.5004 47.2256H57.167V49.559H59.5004V47.2256Z" fill="#2196F3"/>
<path d="M54.8337 47.2256H52.5002V49.559H54.8337V47.2256Z" fill="#2196F3"/>
<path d="M49.0003 57.7261H46.6669V60.0595H49.0003V57.7261Z" fill="#2196F3"/>
<path d="M49.0003 62.3926H46.6669V64.726H49.0003V62.3926Z" fill="#2196F3"/>
<path d="M51.3337 60.0591H49.0002V62.3925H51.3337V60.0591Z" fill="#2196F3"/>
<path d="M46.6668 60.0591H44.3334V62.3925H46.6668V60.0591Z" fill="#2196F3"/>
<path d="M35 53.0591H32.6666V55.3925H35V53.0591Z" fill="#2196F3"/>
<path d="M35 57.7261H32.6666V60.0595H35V57.7261Z" fill="#2196F3"/>
<path d="M37.3334 55.3926H35V57.726H37.3334V55.3926Z" fill="#2196F3"/>
<path d="M32.6665 55.3926H30.3331V57.726H32.6665V55.3926Z" fill="#2196F3"/>
<path d="M12.8331 13.3916H10.4996V15.725H12.8331V13.3916Z" fill="#2196F3"/>
<path d="M12.8331 18.0586H10.4996V20.392H12.8331V18.0586Z" fill="#2196F3"/>
<path d="M15.1663 15.7251H12.8329V18.0585H15.1663V15.7251Z" fill="#2196F3"/>
<path d="M10.4996 15.7251H8.16614V18.0585H10.4996V15.7251Z" fill="#2196F3"/>
<path d="M54.0635 30.974C53.4347 30.1258 52.5119 29.5798 51.4642 29.4327C50.4118 29.2834 49.3734 29.5599 48.5334 30.2028L45.7952 32.3015L45.794 32.3028L41.6428 35.4027L38.6724 34.2196C43.9691 31.8431 47.6711 26.5452 47.6711 20.3944C47.6711 12.0316 40.8401 5.22754 32.4436 5.22754C24.047 5.22754 17.2161 12.0316 17.2161 20.3944C17.2161 23.4255 18.1226 26.2441 19.6662 28.616L13.6204 28.5635C13.6168 28.5635 13.6134 28.5635 13.6099 28.5635C13.5911 28.5635 13.5761 28.5728 13.5586 28.574C13.4431 28.5786 13.3298 28.602 13.2191 28.6417C13.1911 28.6522 13.162 28.6581 13.1352 28.6708C13.1212 28.6767 13.1071 28.6778 13.0932 28.6847L6.02075 32.1766C6.01952 32.1766 6.01843 32.1766 6.01843 32.1777L1.8766 34.1694C1.83107 34.1893 1.78445 34.2161 1.73892 34.2464C0.0880191 35.3454 -0.474314 37.5038 0.429958 39.2677C0.911763 40.2058 1.73195 40.8965 2.73999 41.2126C3.12856 41.3339 3.52518 41.3935 3.91949 41.3935C4.55305 41.3935 5.18074 41.2383 5.75578 40.9315L8.79154 39.3168L13.7441 36.7595L16.7122 36.742L4.80844 48.5886C4.80735 48.5898 4.80612 48.5898 4.80489 48.5909L1.87647 51.5076C1.18466 52.1959 0.8043 53.1094 0.8043 54.0836C0.8043 55.0567 1.18466 55.9724 1.87647 56.6621C2.587 57.369 3.52149 57.7237 4.45598 57.7237C5.3917 57.7237 6.32495 57.369 7.03782 56.6621L9.91251 53.799L13.7206 50.9557L15.6912 52.9181L11.8375 56.7553C11.8364 56.7565 11.8352 56.7565 11.834 56.7576L8.90556 59.6743C8.21375 60.3627 7.8334 61.2761 7.8334 62.2504C7.8334 63.2234 8.21375 64.1392 8.90556 64.8288C9.6161 65.5358 10.5518 65.8904 11.4863 65.8904C12.4208 65.8904 13.3565 65.5358 14.0681 64.8288L16.9977 61.9121L21.6842 57.2455C21.6854 57.2442 21.6854 57.2431 21.6865 57.2419L23.8951 55.0544L23.8869 55.0462C23.9008 55.0322 23.9207 55.0274 23.9347 55.0124L35.2353 42.635L42.8281 43.7154C42.8829 43.7236 42.9377 43.727 42.9925 43.727C43.1338 43.727 43.2702 43.6933 43.402 43.6431C43.4406 43.6292 43.4743 43.6104 43.5106 43.5918C43.5526 43.5708 43.5968 43.5591 43.6366 43.5323L50.6659 38.8657C50.6916 38.8482 50.7055 38.8201 50.73 38.8015C50.758 38.7794 50.793 38.7701 50.8186 38.7455L53.5999 36.1403C55.0471 34.7843 55.2466 32.563 54.0635 30.974ZM4.66024 38.8724C4.28111 39.0754 3.85058 39.1161 3.43878 38.9856C3.03039 38.8584 2.69912 38.5795 2.50538 38.2027C2.15305 37.5166 2.35718 36.6813 2.97433 36.2298L5.84793 34.8473L6.53974 36.8691L6.83027 37.7184L4.66024 38.8724ZM12.3102 34.8742L8.92333 36.6243L8.36456 34.9909L7.96328 33.8171L12.3967 31.6283L12.3102 34.8742ZM45.3402 20.3921C45.3402 22.401 44.8607 24.2959 44.03 25.9909L34.8832 21.8364C34.7875 20.5822 34.1366 19.4844 33.1589 18.8006L36.3614 8.16868C41.5626 9.82314 45.3402 14.6754 45.3402 20.3921ZM19.5519 20.3921C19.5519 13.3161 25.3363 7.55849 32.446 7.55849C32.9991 7.55849 33.5403 7.60511 34.0759 7.67279L30.9433 18.0715C30.9014 18.0703 30.8617 18.0587 30.8185 18.0587C28.5597 18.0587 26.7222 19.8903 26.7222 22.1421C26.7222 24.3938 28.5597 26.2255 30.8185 26.2255C32.3375 26.2255 33.65 25.3868 34.3582 24.1593L42.8073 27.9977C40.4564 31.1617 36.6938 33.2256 32.4459 33.2256C25.3363 33.2256 19.5519 27.4681 19.5519 20.3921ZM32.5814 22.1421C32.5814 23.1069 31.7903 23.8921 30.8185 23.8921C29.8467 23.8921 29.0556 23.1069 29.0556 22.1421C29.0556 21.1773 29.8467 20.3921 30.8185 20.3921C31.7903 20.3921 32.5814 21.1773 32.5814 22.1421ZM5.39183 55.0076C4.87503 55.5198 4.03843 55.5187 3.52286 55.0088C3.2743 54.7603 3.13785 54.4326 3.13785 54.0836C3.13785 53.736 3.2743 53.4081 3.52286 53.162L5.6274 51.0654L7.48941 52.9193L5.39183 55.0076ZM12.4222 63.1745C11.9054 63.6866 11.0677 63.6879 10.552 63.1757C10.3034 62.9272 10.1669 62.5994 10.1669 62.2505C10.1669 61.9028 10.3034 61.575 10.552 61.3289L12.6579 59.2312L13.5388 60.1074L14.5211 61.0851L12.4222 63.1745ZM20.0383 55.5863C20.0371 55.5874 20.036 55.5874 20.0348 55.5887L16.1742 59.4387L15.2933 58.5625L14.311 57.5848L18.168 53.7453C18.168 53.7453 18.168 53.7453 18.168 53.7442C18.1692 53.7429 18.1703 53.7429 18.1715 53.7418C18.259 53.6543 18.3139 53.5493 18.3676 53.4456C18.3828 53.4152 18.4119 53.3895 18.4248 53.3581C18.461 53.2682 18.4667 53.1714 18.4808 53.0768C18.4878 53.0231 18.5112 52.9731 18.5112 52.9181C18.5112 52.8399 18.4831 52.7642 18.4669 52.687C18.4529 52.617 18.4529 52.5458 18.426 52.4783C18.3817 52.3686 18.3058 52.2718 18.2265 52.1772C18.2044 52.1515 18.1962 52.1188 18.1717 52.0944C18.1717 52.0944 18.1717 52.0944 18.1705 52.0944C18.1692 52.0933 18.1692 52.0908 18.1681 52.0897L14.6529 48.5897C14.6156 48.5523 14.5677 48.5372 14.5257 48.5057C14.464 48.4579 14.4045 48.4136 14.3356 48.3797C14.2691 48.347 14.2014 48.3271 14.1314 48.3084C14.0568 48.2874 13.9845 48.2711 13.9063 48.2652C13.835 48.2606 13.7686 48.2675 13.6975 48.2757C13.6193 48.285 13.5459 48.2956 13.47 48.32C13.3964 48.3434 13.3312 48.3795 13.2635 48.4181C13.2203 48.4425 13.1714 48.4507 13.1305 48.4811L9.25133 51.3768L7.28077 49.4145L12.5285 44.1948L22.0674 53.5761L20.0383 55.5863ZM34.9544 40.2374C34.9207 40.2327 34.8891 40.2456 34.8553 40.2433C34.7701 40.2386 34.6885 40.2445 34.6034 40.2584C34.5369 40.2701 34.4739 40.2829 34.4108 40.3051C34.3362 40.3308 34.2685 40.3658 34.1996 40.4077C34.1343 40.4474 34.0748 40.4894 34.0176 40.5419C33.9896 40.5663 33.9558 40.5781 33.9301 40.606L23.6527 51.8622L14.185 42.5508L20.3825 36.3861C20.8387 35.9311 20.841 35.1925 20.386 34.7352C20.1562 34.5054 19.854 34.3922 19.5519 34.3934V34.3923L14.6984 34.4214L14.7591 30.9051L21.5492 30.9635C24.3166 33.7939 28.176 35.5591 32.446 35.5591C33.4027 35.5591 34.3361 35.4599 35.2448 35.2907C35.3323 35.3607 35.4186 35.4319 35.5284 35.4762L40.7995 37.5762L41.1331 39.2352L41.5228 41.1719L34.9544 40.2374ZM43.7944 40.627L43.1096 37.2191L46.2736 34.8566L47.102 35.9556L48.3445 37.6052L43.7944 40.627ZM52.0055 34.4343L50.1726 36.1516L48.1356 33.4473L49.9544 32.0531C50.2938 31.7919 50.7221 31.6856 51.1421 31.7405C51.5644 31.7999 51.9378 32.0205 52.1921 32.3623C52.6658 33.0005 52.5853 33.8907 52.0055 34.4343Z" fill="#212121"/>
<path d="M29.7545 40.5651L25.0668 35.8984C24.613 35.4447 23.8755 35.4447 23.4205 35.8984L18.734 40.5651C18.5147 40.7857 18.391 41.0819 18.391 41.3923C18.391 41.7026 18.5135 42.0002 18.734 42.2195L23.4205 46.8861C23.648 47.1124 23.9468 47.2256 24.2443 47.2256C24.5418 47.2256 24.8404 47.1124 25.0668 46.8861L29.7545 42.2195C29.9738 42.0002 30.0987 41.7026 30.0987 41.3923C30.0987 41.0819 29.9749 40.7844 29.7545 40.5651ZM24.2443 44.4129L21.2109 41.3923L24.2443 38.3717L27.2788 41.3923L24.2443 44.4129Z" fill="#212121"/>
<path d="M37.5468 11.0923L36.9833 13.358C37.1385 13.3966 40.7844 14.3462 40.7844 18.0586H43.1178C43.1177 13.6461 39.4742 11.5718 37.5468 11.0923Z" fill="#212121"/>
<path d="M43.1178 20.3921H40.7844V22.7255H43.1178V20.3921Z" fill="#212121"/>
</symbol>


<!-- SOCIAL ICONS -->

<!-- Instagram -->
<symbol  viewBox="0 0 44 44"  id="instagram">
<path d="M44 22C44 28.0751 41.5376 33.5751 37.5564 37.5564C33.5751 41.5376 28.0751 44 22 44C15.9249 44 10.4249 41.5376 6.44365 37.5564C2.46243 33.5751 0 28.0751 0 22C0 15.9249 2.46243 10.4249 6.44365 6.44365C10.4249 2.46243 15.9249 0 22 0C28.0751 0 33.5751 2.46243 37.5564 6.44365C41.5376 10.4249 44 15.9249 44 22Z" fill="white"/>
<g clip-path="url(#clip0_707_726)">
<path d="M31.9804 17.8801C31.9336 16.8174 31.7617 16.0868 31.5156 15.4537C31.2616 14.7818 30.8709 14.1801 30.359 13.68C29.8589 13.1721 29.2533 12.7774 28.5891 12.5274C27.9524 12.2813 27.2256 12.1094 26.163 12.0626C25.0924 12.0118 24.7525 12 22.0371 12C19.3217 12 18.9818 12.0118 17.9152 12.0586C16.8525 12.1055 16.1219 12.2775 15.489 12.5235C14.8169 12.7774 14.2153 13.1681 13.7152 13.68C13.2073 14.1801 12.8127 14.7857 12.5626 15.4499C12.3164 16.0868 12.1446 16.8134 12.0977 17.8761C12.0469 18.9467 12.0352 19.2866 12.0352 22.002C12.0352 24.7173 12.0469 25.0572 12.0938 26.1239C12.1406 27.1865 12.3126 27.9171 12.5588 28.5502C12.8127 29.2221 13.2073 29.8238 13.7152 30.3239C14.2153 30.8318 14.8209 31.2265 15.4851 31.4765C16.1219 31.7226 16.8486 31.8945 17.9114 31.9413C18.9779 31.9883 19.3179 31.9999 22.0333 31.9999C24.7487 31.9999 25.0885 31.9883 26.1552 31.9413C27.2179 31.8945 27.9484 31.7226 28.5813 31.4765C29.9254 30.9568 30.9881 29.8941 31.5078 28.5502C31.7538 27.9133 31.9258 27.1865 31.9727 26.1239C32.0195 25.0572 32.0313 24.7173 32.0313 22.002C32.0313 19.2866 32.0273 18.9467 31.9804 17.8801ZM30.1794 26.0457C30.1364 27.0225 29.9723 27.5499 29.8356 27.9015C29.4995 28.7728 28.808 29.4643 27.9367 29.8004C27.5851 29.9372 27.0538 30.1012 26.0809 30.1441C25.026 30.1911 24.7096 30.2027 22.0411 30.2027C19.3726 30.2027 19.0522 30.1911 18.0011 30.1441C17.0244 30.1012 16.4969 29.9372 16.1453 29.8004C15.7117 29.6402 15.317 29.3862 14.9967 29.0541C14.6646 28.7298 14.4106 28.3391 14.2504 27.9055C14.1137 27.5539 13.9496 27.0225 13.9067 26.0497C13.8597 24.9948 13.8481 24.6783 13.8481 22.0097C13.8481 19.3412 13.8597 19.0209 13.9067 17.9699C13.9496 16.9932 14.1137 16.4657 14.2504 16.1141C14.4106 15.6804 14.6646 15.2859 15.0007 14.9654C15.3248 14.6333 15.7155 14.3793 16.1493 14.2192C16.5009 14.0825 17.0323 13.9184 18.0051 13.8754C19.06 13.8285 19.3765 13.8168 22.0449 13.8168C24.7174 13.8168 25.0337 13.8285 26.0848 13.8754C27.0616 13.9184 27.589 14.0825 27.9407 14.2192C28.3742 14.3793 28.7689 14.6333 29.0893 14.9654C29.4213 15.2897 29.6753 15.6804 29.8356 16.1141C29.9723 16.4657 30.1364 16.997 30.1794 17.9699C30.2263 19.0248 30.238 19.3412 30.238 22.0097C30.238 24.6783 30.2263 24.9908 30.1794 26.0457Z" fill="#AFB1B8"/>
<path d="M22.0371 16.8643C19.2007 16.8643 16.8994 19.1654 16.8994 22.002C16.8994 24.8385 19.2007 27.1397 22.0371 27.1397C24.8737 27.1397 27.1749 24.8385 27.1749 22.002C27.1749 19.1654 24.8737 16.8643 22.0371 16.8643ZM22.0371 25.3347C20.197 25.3347 18.7044 23.8422 18.7044 22.002C18.7044 20.1617 20.197 18.6693 22.0371 18.6693C23.8774 18.6693 25.3698 20.1617 25.3698 22.002C25.3698 23.8422 23.8774 25.3347 22.0371 25.3347Z" fill="#AFB1B8"/>
<path d="M28.5775 16.6613C28.5775 17.3237 28.0404 17.8608 27.3779 17.8608C26.7155 17.8608 26.1785 17.3237 26.1785 16.6613C26.1785 15.9988 26.7155 15.4619 27.3779 15.4619C28.0404 15.4619 28.5775 15.9988 28.5775 16.6613Z" fill="#AFB1B8"/>
</g>
<defs>
<clipPath id="clip0_707_726">
<rect width="20" height="20" fill="white" transform="translate(12 12)"/>
</clipPath>
</defs>
</symbol>

<!-- twitter -->
<symbol viewBox="0 0 44 44" fill="none" id="twitter">
<path d="M44 22C44 28.0751 41.5376 33.5751 37.5564 37.5564C33.5751 41.5376 28.0751 44 22 44C15.9249 44 10.4249 41.5376 6.44365 37.5564C2.46243 33.5751 0 28.0751 0 22C0 15.9249 2.46243 10.4249 6.44365 6.44365C10.4249 2.46243 15.9249 0 22 0C28.0751 0 33.5751 2.46243 37.5564 6.44365C41.5376 10.4249 44 15.9249 44 22Z" fill="white"/>
<g clip-path="url(#clip0_707_692)">
<path d="M32 15.7988C31.2563 16.125 30.4637 16.3412 29.6375 16.4462C30.4875 15.9388 31.1363 15.1412 31.4412 14.18C30.6488 14.6525 29.7738 14.9863 28.8412 15.1725C28.0887 14.3713 27.0162 13.875 25.8462 13.875C23.5763 13.875 21.7487 15.7175 21.7487 17.9763C21.7487 18.3012 21.7762 18.6137 21.8438 18.9112C18.435 18.745 15.4188 17.1113 13.3925 14.6225C13.0387 15.2363 12.8313 15.9388 12.8313 16.695C12.8313 18.115 13.5625 19.3737 14.6525 20.1025C13.9937 20.09 13.3475 19.8988 12.8 19.5975C12.8 19.61 12.8 19.6262 12.8 19.6425C12.8 21.635 14.2212 23.29 16.085 23.6712C15.7512 23.7625 15.3875 23.8062 15.01 23.8062C14.7475 23.8062 14.4825 23.7913 14.2337 23.7362C14.765 25.36 16.2725 26.5538 18.065 26.5925C16.67 27.6838 14.8988 28.3412 12.9813 28.3412C12.645 28.3412 12.3225 28.3263 12 28.285C13.8162 29.4563 15.9688 30.125 18.29 30.125C25.835 30.125 29.96 23.875 29.96 18.4575C29.96 18.2762 29.9538 18.1013 29.945 17.9275C30.7588 17.35 31.4425 16.6288 32 15.7988Z" fill="#AFB1B8"/>
</g>
<defs>
<clipPath id="clip0_707_692">
<rect width="20" height="20" fill="white" transform="translate(12 12)"/>
</clipPath>
</defs>
</symbol>

<!-- facebook -->

<symbol viewBox="0 0 44 44"  id="facebook">
<path d="M44 22C44 28.0751 41.5376 33.5751 37.5564 37.5564C33.5751 41.5376 28.0751 44 22 44C15.9249 44 10.4249 41.5376 6.44365 37.5564C2.46243 33.5751 0 28.0751 0 22C0 15.9249 2.46243 10.4249 6.44365 6.44365C10.4249 2.46243 15.9249 0 22 0C28.0751 0 33.5751 2.46243 37.5564 6.44365C41.5376 10.4249 44 15.9249 44 22Z" fill="white"/>
<g clip-path="url(#clip0_707_716)">
<path d="M25.3309 15.3208H27.1567V12.1408C26.8417 12.0975 25.7584 12 24.4967 12C21.8642 12 20.0609 13.6558 20.0609 16.6992V19.5H17.1559V23.055H20.0609V32H23.6226V23.0558H26.4101L26.8526 19.5008H23.6217V17.0517C23.6226 16.0242 23.8992 15.3208 25.3309 15.3208Z" fill="#AFB1B8"/>
</g>
<defs>
<clipPath id="clip0_707_716">
<rect width="20" height="20" fill="white" transform="translate(12 12)"/>
</clipPath>
</defs>
</symbol>


<!-- linkedin -->

<symbol viewBox="0 0 44 44"  id="linkedin">
<path d="M44 22C44 28.0751 41.5376 33.5751 37.5564 37.5564C33.5751 41.5376 28.0751 44 22 44C15.9249 44 10.4249 41.5376 6.44365 37.5564C2.46243 33.5751 0 28.0751 0 22C0 15.9249 2.46243 10.4249 6.44365 6.44365C10.4249 2.46243 15.9249 0 22 0C28.0751 0 33.5751 2.46243 37.5564 6.44365C41.5376 10.4249 44 15.9249 44 22Z" fill="white"/>
<g clip-path="url(#clip0_707_710)">
<path d="M31.9951 31.9999V31.999H32.0001V24.664C32.0001 21.0757 31.2276 18.3115 27.0326 18.3115C25.0159 18.3115 23.6626 19.4182 23.1101 20.4674H23.0517V18.6465H19.0742V31.999H23.2159V25.3874C23.2159 23.6465 23.5459 21.9632 25.7017 21.9632C27.8259 21.9632 27.8576 23.9499 27.8576 25.499V31.9999H31.9951Z" fill="#AFB1B8"/>
<path d="M12.33 18.6475H16.4766V32H12.33V18.6475Z" fill="#AFB1B8"/>
<path d="M14.4017 12C13.0758 12 12 13.0758 12 14.4017C12 15.7275 13.0758 16.8258 14.4017 16.8258C15.7275 16.8258 16.8033 15.7275 16.8033 14.4017C16.8025 13.0758 15.7267 12 14.4017 12V12Z" fill="#AFB1B8"/>
</g>
<defs>
<clipPath id="clip0_707_710">
<rect width="20" height="20" fill="white" transform="translate(12 12)"/>
</clipPath>
</defs>
</symbol>

<!--  -->


</svg>

