
<svg xmlns="http://www.w3.org/2000/svg">

<!-- FEATURES ICONS -->
<!-- antenna -->
	<symbol viewBox="0 0 70 70" fill="none" id="antenna">
		<path  d="M67.3162 48.3385L48.8467 29.7337L50.8966 19.6373C51.4255 19.8438 51.9878 19.9517 52.5556 19.9558H52.5696C55.1776 19.9866 57.3169 17.8974 57.3478 15.2893C57.3787 12.6812 55.2894 10.542 52.6813 10.5111C50.0732 10.4803 47.934 12.5695 47.903 15.1776C47.8965 15.7357 47.9888 16.2905 48.1759 16.8163L37.3259 18.1405L19.6276 0.35C19.4104 0.128479 19.1141 0.00247917 18.8039 0C18.4976 0.00160417 18.2044 0.123521 17.9872 0.3395L14.6786 3.6295C14.2231 4.08508 14.2231 4.82358 14.6786 5.27917L16.4589 7.08517C9.56156 19.7681 11.8018 35.4741 21.9702 45.7228C22.0636 45.8121 22.1718 45.8843 22.2899 45.9363C22.2164 46.3311 22.178 46.7317 22.1756 47.1333V60.6667H8.17556C4.95556 60.6705 2.34602 63.28 2.34222 66.5V68.8333C2.34222 69.4776 2.8646 70 3.50889 70H57.1756C57.8199 70 58.3422 69.4776 58.3422 68.8333V66.5C58.3384 63.28 55.7289 60.6705 52.5089 60.6667H38.5089V54.6688C40.7021 55.1288 42.9367 55.3633 45.1776 55.3688C50.5547 55.363 55.8463 54.0225 60.5776 51.4675L62.3672 53.2677C62.5844 53.4892 62.8807 53.6152 63.1909 53.6177C63.4971 53.6161 63.7904 53.4941 64.0076 53.2782L67.3162 49.9882C67.7717 49.5326 67.7717 48.7941 67.3162 48.3385ZM50.9246 13.6348C51.8382 12.726 53.3156 12.7301 54.2243 13.6437C55.1332 14.5574 55.1291 16.0348 54.2154 16.9435C53.7781 17.3785 53.1863 17.6226 52.5694 17.6225H52.5624C51.2738 17.6158 50.2345 16.5658 50.2412 15.2771C50.2444 14.6602 50.4917 14.0699 50.9291 13.6348H50.9246ZM48.1782 21.301L46.8692 27.7445L44.2979 25.158L48.1782 21.301ZM46.8529 19.3282L42.6529 23.5037L39.4037 20.237L46.8529 19.3282ZM52.5089 63C54.4419 63 56.0089 64.567 56.0089 66.5V67.6667H4.67556V66.5C4.67556 64.567 6.24254 63 8.17556 63H52.5089ZM36.1756 58.3333V60.6667H24.5089V58.3333H36.1756ZM24.5089 56V47.1333C24.5089 44.303 27.1257 42 30.3422 42C33.5587 42 36.1756 44.303 36.1756 47.1333V56H24.5089ZM38.5089 52.29V47.1333C38.5089 43.0162 34.8456 39.6667 30.3422 39.6667C27.4305 39.622 24.7078 41.1041 23.1649 43.5738C14.2886 34.2249 12.2898 20.2875 18.1805 8.82073L58.8719 49.7455C52.5885 52.9419 45.3857 53.8418 38.5089 52.29ZM63.2037 50.7943L61.5599 49.1412L18.7922 6.11567L17.1414 4.46133L18.7922 2.81633L36.1499 20.272C36.1581 20.272 36.1627 20.2872 36.1709 20.293L64.8592 49.1493L63.2037 50.7943Z" fill="#212121"/>
		<path d="M30.3527 44.3335H30.3422C28.4092 44.3306 26.8399 45.8952 26.837 47.8283C26.8341 49.7613 28.3987 51.3306 30.3317 51.3335H30.3422C32.2752 51.3364 33.8446 49.7718 33.8475 47.8388C33.8504 45.9057 32.2857 44.3364 30.3527 44.3335ZM31.1694 48.6607C30.9498 48.8791 30.6521 49.0013 30.3422 49.0002C29.6979 48.9968 29.1783 48.4718 29.1817 47.8275C29.1833 47.5191 29.307 47.2239 29.5256 47.0063C29.7427 46.7904 30.036 46.6684 30.3422 46.6668C30.9865 46.6702 31.5061 47.1952 31.5028 47.8395C31.5012 48.1479 31.3775 48.4431 31.1589 48.6607H31.1694Z" fill="#2196F3"/>
	</symbol>

    <!-- clock -->

<symbol  viewBox="0 0 70 70" fill="none" id="clock">
<g clip-path="url(#clip0_707_589)">
<path d="M68.4614 33.4715C68.4576 14.9819 53.4656 -0.00373771 34.9754 6.99302e-07C16.4858 0.00373911 1.50017 14.9963 1.50391 33.4859C1.50711 48.0502 10.9252 60.9413 24.7995 65.3713C24.9319 65.413 25.0697 65.4343 25.2081 65.4338C25.4719 65.4333 25.7304 65.3628 25.9573 65.2287C26.2527 65.0541 26.4732 64.7764 26.5768 64.449L35.0315 37.6521C37.3429 37.6404 39.2068 35.7568 39.1945 33.4459C39.1827 31.1345 37.2997 29.2706 34.9883 29.2824C34.3666 29.285 33.753 29.4282 33.1944 29.7011L22.0251 18.5302C21.4707 17.9951 20.5879 18.0106 20.0528 18.5644C19.5305 19.1054 19.5305 19.962 20.0528 20.503L31.2162 31.6792C30.3596 33.4277 30.8493 35.5383 32.3895 36.7303L24.3338 62.2647C8.41354 56.4002 0.261689 38.7405 6.12618 22.8203C11.9907 6.90002 29.6503 -1.25183 45.5706 4.61266C61.4909 10.4771 69.6427 28.1374 63.7782 44.0571C60.913 51.8351 55.0261 58.1252 47.4548 61.4989L46.5842 57.3989C46.4251 56.6454 45.6844 56.1636 44.9308 56.3233C44.6931 56.3741 44.4726 56.4857 44.291 56.6475L35.8978 64.1409C35.322 64.653 35.2708 65.5347 35.7835 66.1105C35.9501 66.2974 36.1637 66.4362 36.403 66.5126L47.1188 69.9327C47.8521 70.1682 48.6377 69.765 48.8732 69.0312C48.948 68.7994 48.9603 68.5527 48.9101 68.3145L48.0545 64.2915C60.4452 59.0678 68.4902 46.918 68.4614 33.4715ZM34.9829 32.0766C35.753 32.0766 36.3779 32.7014 36.3779 33.4715C36.3779 34.2422 35.753 34.8665 34.9829 34.8665C34.2123 34.8665 33.588 34.2422 33.588 33.4715C33.588 32.7014 34.2123 32.0766 34.9829 32.0766ZM39.5774 64.5916L44.3551 60.3298L45.6737 66.543L39.5774 64.5916Z" fill="#212121"/>
<path d="M33.5879 6.96722V9.75714C33.5879 10.5278 34.2122 11.1521 34.9828 11.1521C35.753 11.1521 36.3778 10.5278 36.3778 9.75714V6.96722C36.3778 6.19711 35.753 5.57227 34.9828 5.57227C34.2122 5.57227 33.5879 6.19711 33.5879 6.96722Z" fill="#2196F3"/>
<path d="M8.4787 32.0767C7.70805 32.0767 7.08374 32.7015 7.08374 33.4716C7.08374 34.2423 7.70805 34.8666 8.4787 34.8666H11.2686C12.0393 34.8666 12.6636 34.2423 12.6636 33.4716C12.6636 32.7015 12.0393 32.0767 11.2686 32.0767H8.4787Z" fill="#2196F3"/>
<path d="M61.4865 34.8666C62.2572 34.8666 62.8815 34.2423 62.8815 33.4716C62.8815 32.7015 62.2572 32.0767 61.4865 32.0767H58.6966C57.9265 32.0767 57.3016 32.7015 57.3016 33.4716C57.3016 34.2423 57.9265 34.8666 58.6966 34.8666H61.4865Z" fill="#2196F3"/>
</g>
<defs>
<clipPath id="clip0_707_589">
<rect width="70" height="70" fill="white"/>
</clipPath>
</defs>
</symbol>


<!-- diagram -->
<symbol viewBox="0 0 70 70" fill="none" id="diagram">
<g clip-path="url(#clip0_707_599)">
<path d="M32.6495 32.7349H34.9816V43.2294H32.6495V32.7349Z" fill="#2196F3"/>
<path d="M41.978 37.3994H44.3101V43.2297H41.978V37.3994Z" fill="#2196F3"/>
<path d="M23.3212 40.8975H25.6533V43.2296H23.3212V40.8975Z" fill="#2196F3"/>
<path d="M16.3248 39.7314H18.6569V43.2296H16.3248V39.7314Z" fill="#2196F3"/>
<path d="M3.49817 61.8866H59.4689C61.4007 61.8866 62.967 60.3203 62.967 58.3884V53.7242C62.967 51.7923 61.4007 50.226 59.4689 50.226H58.3028V21.1469L64.9262 14.8725C66.4635 15.6304 68.3242 15.1703 69.3302 13.7816C70.3369 12.3935 70.1957 10.4822 68.9966 9.2569C67.7975 8.03163 65.8901 7.84886 64.4798 8.82418C63.0701 9.80007 62.569 11.6499 63.2933 13.2037L58.3028 17.9346V15.2443C58.3028 13.3125 56.7365 11.7462 54.8046 11.7462H8.16239C6.23054 11.7462 4.66422 13.3125 4.66422 15.2443V50.226H3.49817C1.56632 50.226 0 51.7923 0 53.7242V58.3884C0 60.3203 1.56632 61.8866 3.49817 61.8866ZM66.4652 10.5801C67.1091 10.5801 67.6312 11.1022 67.6312 11.7462C67.6312 12.3901 67.1091 12.9122 66.4652 12.9122C65.8212 12.9122 65.2991 12.3901 65.2991 11.7462C65.2991 11.1022 65.8212 10.5801 66.4652 10.5801ZM6.99634 15.2443C6.99634 14.6004 7.51844 14.0783 8.16239 14.0783H54.8046C55.4486 14.0783 55.9707 14.6004 55.9707 15.2443V20.1414L53.6386 22.3574V17.5764C53.6386 16.9325 53.1165 16.4104 52.4725 16.4104H10.4945C9.85055 16.4104 9.32845 16.9325 9.32845 17.5764V46.7278C9.32845 47.3718 9.85055 47.8939 10.4945 47.8939H52.4725C53.1165 47.8939 53.6386 47.3718 53.6386 46.7278V25.5652L55.9707 23.3555V50.226H6.99634V15.2443ZM17.4908 30.4031C15.9131 30.3985 14.5279 31.4495 14.1083 32.9703C13.6886 34.4911 14.3383 36.1041 15.6951 36.9092C17.0513 37.7143 18.7793 37.5121 19.9129 36.415L23.9662 38.4487C24.4371 38.6844 25.0081 38.574 25.3583 38.1806L33.9745 28.4871L42.4443 34.8338C42.8987 35.1743 43.5329 35.1379 43.9452 34.7479L51.3065 27.7749V45.5618H11.6606V18.7425H51.3065V24.562L43.0564 32.3748L34.5154 25.9717C34.0303 25.6084 33.3476 25.6768 32.9445 26.1294L24.2099 35.9572L20.9446 34.3243C20.9685 34.1842 20.9833 34.043 20.989 33.9012C20.989 31.9694 19.4227 30.4031 17.4908 30.4031ZM18.6569 33.9012C18.6569 34.5452 18.1348 35.0673 17.4908 35.0673C16.8469 35.0673 16.3248 34.5452 16.3248 33.9012C16.3248 33.2573 16.8469 32.7352 17.4908 32.7352C18.1348 32.7352 18.6569 33.2573 18.6569 33.9012ZM25.6532 52.5581H37.3138V53.7242C37.3138 54.3681 36.7917 54.8902 36.1477 54.8902H26.8193C26.1753 54.8902 25.6532 54.3681 25.6532 53.7242V52.5581ZM2.33211 53.7242C2.33211 53.0802 2.85422 52.5581 3.49817 52.5581H23.3211V53.7242C23.3211 55.656 24.8874 57.2223 26.8193 57.2223H36.1477C38.0796 57.2223 39.6459 55.656 39.6459 53.7242V52.5581H59.4689C60.1128 52.5581 60.6349 53.0802 60.6349 53.7242V58.3884C60.6349 59.0324 60.1128 59.5545 59.4689 59.5545H3.49817C2.85422 59.5545 2.33211 59.0324 2.33211 58.3884V53.7242Z" fill="#212121"/>
</g>
<defs>
<clipPath id="clip0_707_599">
<rect width="70" height="70" fill="white"/>
</clipPath>
</defs>
</symbol>   

<!-- astranaut -->
<symbol  viewBox="0 0 70 70" fill="none" id="astranaut">
<path d="M69.9432 9.89619C69.8055 9.47495 69.4416 9.16706 69.0017 9.1028L64.8227 8.49494L62.9525 4.7079C62.5606 3.90987 61.2527 3.90987 60.8607 4.7079L58.9905 8.49494L54.8114 9.10293C54.3715 9.16706 54.0076 9.47399 53.8687 9.89632C53.7322 10.3187 53.8453 10.783 54.1638 11.0922L57.1891 14.0405L56.4751 18.2032C56.4005 18.6407 56.5801 19.0829 56.9383 19.3443C57.3012 19.608 57.7748 19.6406 58.168 19.4329L61.9061 17.467L65.6441 19.4329C65.8145 19.5227 66.0024 19.567 66.1879 19.567C66.4293 19.567 66.6709 19.4924 66.874 19.3441C67.2333 19.0829 67.4129 18.6406 67.3372 18.2031L66.6232 14.0403L69.6484 11.0921C69.9653 10.7817 70.0798 10.3185 69.9432 9.89619ZM64.5556 12.7989C64.2815 13.0661 64.1554 13.4534 64.2207 13.8314L64.6384 16.2686L62.4498 15.1182C62.2795 15.0284 62.0928 14.9841 61.9061 14.9841C61.7194 14.9841 61.5339 15.0284 61.3623 15.1182L59.1736 16.2686L59.5912 13.8314C59.6566 13.4534 59.5305 13.0673 59.2564 12.7989L57.4842 11.0723L59.932 10.7164C60.3123 10.6616 60.6402 10.4224 60.8105 10.0782L61.9048 7.86151L62.9991 10.0782C63.1695 10.4223 63.4974 10.6616 63.8777 10.7164L66.3254 11.0723L64.5556 12.7989Z" fill="#2196F3"/>
<path d="M57.1669 44.8921H54.8335V47.2255H57.1669V44.8921Z" fill="#2196F3"/>
<path d="M57.1669 49.5591H54.8335V51.8925H57.1669V49.5591Z" fill="#2196F3"/>
<path d="M59.5004 47.2256H57.167V49.559H59.5004V47.2256Z" fill="#2196F3"/>
<path d="M54.8337 47.2256H52.5002V49.559H54.8337V47.2256Z" fill="#2196F3"/>
<path d="M49.0003 57.7261H46.6669V60.0595H49.0003V57.7261Z" fill="#2196F3"/>
<path d="M49.0003 62.3926H46.6669V64.726H49.0003V62.3926Z" fill="#2196F3"/>
<path d="M51.3337 60.0591H49.0002V62.3925H51.3337V60.0591Z" fill="#2196F3"/>
<path d="M46.6668 60.0591H44.3334V62.3925H46.6668V60.0591Z" fill="#2196F3"/>
<path d="M35 53.0591H32.6666V55.3925H35V53.0591Z" fill="#2196F3"/>
<path d="M35 57.7261H32.6666V60.0595H35V57.7261Z" fill="#2196F3"/>
<path d="M37.3334 55.3926H35V57.726H37.3334V55.3926Z" fill="#2196F3"/>
<path d="M32.6665 55.3926H30.3331V57.726H32.6665V55.3926Z" fill="#2196F3"/>
<path d="M12.8331 13.3916H10.4996V15.725H12.8331V13.3916Z" fill="#2196F3"/>
<path d="M12.8331 18.0586H10.4996V20.392H12.8331V18.0586Z" fill="#2196F3"/>
<path d="M15.1663 15.7251H12.8329V18.0585H15.1663V15.7251Z" fill="#2196F3"/>
<path d="M10.4996 15.7251H8.16614V18.0585H10.4996V15.7251Z" fill="#2196F3"/>
<path d="M54.0635 30.974C53.4347 30.1258 52.5119 29.5798 51.4642 29.4327C50.4118 29.2834 49.3734 29.5599 48.5334 30.2028L45.7952 32.3015L45.794 32.3028L41.6428 35.4027L38.6724 34.2196C43.9691 31.8431 47.6711 26.5452 47.6711 20.3944C47.6711 12.0316 40.8401 5.22754 32.4436 5.22754C24.047 5.22754 17.2161 12.0316 17.2161 20.3944C17.2161 23.4255 18.1226 26.2441 19.6662 28.616L13.6204 28.5635C13.6168 28.5635 13.6134 28.5635 13.6099 28.5635C13.5911 28.5635 13.5761 28.5728 13.5586 28.574C13.4431 28.5786 13.3298 28.602 13.2191 28.6417C13.1911 28.6522 13.162 28.6581 13.1352 28.6708C13.1212 28.6767 13.1071 28.6778 13.0932 28.6847L6.02075 32.1766C6.01952 32.1766 6.01843 32.1766 6.01843 32.1777L1.8766 34.1694C1.83107 34.1893 1.78445 34.2161 1.73892 34.2464C0.0880191 35.3454 -0.474314 37.5038 0.429958 39.2677C0.911763 40.2058 1.73195 40.8965 2.73999 41.2126C3.12856 41.3339 3.52518 41.3935 3.91949 41.3935C4.55305 41.3935 5.18074 41.2383 5.75578 40.9315L8.79154 39.3168L13.7441 36.7595L16.7122 36.742L4.80844 48.5886C4.80735 48.5898 4.80612 48.5898 4.80489 48.5909L1.87647 51.5076C1.18466 52.1959 0.8043 53.1094 0.8043 54.0836C0.8043 55.0567 1.18466 55.9724 1.87647 56.6621C2.587 57.369 3.52149 57.7237 4.45598 57.7237C5.3917 57.7237 6.32495 57.369 7.03782 56.6621L9.91251 53.799L13.7206 50.9557L15.6912 52.9181L11.8375 56.7553C11.8364 56.7565 11.8352 56.7565 11.834 56.7576L8.90556 59.6743C8.21375 60.3627 7.8334 61.2761 7.8334 62.2504C7.8334 63.2234 8.21375 64.1392 8.90556 64.8288C9.6161 65.5358 10.5518 65.8904 11.4863 65.8904C12.4208 65.8904 13.3565 65.5358 14.0681 64.8288L16.9977 61.9121L21.6842 57.2455C21.6854 57.2442 21.6854 57.2431 21.6865 57.2419L23.8951 55.0544L23.8869 55.0462C23.9008 55.0322 23.9207 55.0274 23.9347 55.0124L35.2353 42.635L42.8281 43.7154C42.8829 43.7236 42.9377 43.727 42.9925 43.727C43.1338 43.727 43.2702 43.6933 43.402 43.6431C43.4406 43.6292 43.4743 43.6104 43.5106 43.5918C43.5526 43.5708 43.5968 43.5591 43.6366 43.5323L50.6659 38.8657C50.6916 38.8482 50.7055 38.8201 50.73 38.8015C50.758 38.7794 50.793 38.7701 50.8186 38.7455L53.5999 36.1403C55.0471 34.7843 55.2466 32.563 54.0635 30.974ZM4.66024 38.8724C4.28111 39.0754 3.85058 39.1161 3.43878 38.9856C3.03039 38.8584 2.69912 38.5795 2.50538 38.2027C2.15305 37.5166 2.35718 36.6813 2.97433 36.2298L5.84793 34.8473L6.53974 36.8691L6.83027 37.7184L4.66024 38.8724ZM12.3102 34.8742L8.92333 36.6243L8.36456 34.9909L7.96328 33.8171L12.3967 31.6283L12.3102 34.8742ZM45.3402 20.3921C45.3402 22.401 44.8607 24.2959 44.03 25.9909L34.8832 21.8364C34.7875 20.5822 34.1366 19.4844 33.1589 18.8006L36.3614 8.16868C41.5626 9.82314 45.3402 14.6754 45.3402 20.3921ZM19.5519 20.3921C19.5519 13.3161 25.3363 7.55849 32.446 7.55849C32.9991 7.55849 33.5403 7.60511 34.0759 7.67279L30.9433 18.0715C30.9014 18.0703 30.8617 18.0587 30.8185 18.0587C28.5597 18.0587 26.7222 19.8903 26.7222 22.1421C26.7222 24.3938 28.5597 26.2255 30.8185 26.2255C32.3375 26.2255 33.65 25.3868 34.3582 24.1593L42.8073 27.9977C40.4564 31.1617 36.6938 33.2256 32.4459 33.2256C25.3363 33.2256 19.5519 27.4681 19.5519 20.3921ZM32.5814 22.1421C32.5814 23.1069 31.7903 23.8921 30.8185 23.8921C29.8467 23.8921 29.0556 23.1069 29.0556 22.1421C29.0556 21.1773 29.8467 20.3921 30.8185 20.3921C31.7903 20.3921 32.5814 21.1773 32.5814 22.1421ZM5.39183 55.0076C4.87503 55.5198 4.03843 55.5187 3.52286 55.0088C3.2743 54.7603 3.13785 54.4326 3.13785 54.0836C3.13785 53.736 3.2743 53.4081 3.52286 53.162L5.6274 51.0654L7.48941 52.9193L5.39183 55.0076ZM12.4222 63.1745C11.9054 63.6866 11.0677 63.6879 10.552 63.1757C10.3034 62.9272 10.1669 62.5994 10.1669 62.2505C10.1669 61.9028 10.3034 61.575 10.552 61.3289L12.6579 59.2312L13.5388 60.1074L14.5211 61.0851L12.4222 63.1745ZM20.0383 55.5863C20.0371 55.5874 20.036 55.5874 20.0348 55.5887L16.1742 59.4387L15.2933 58.5625L14.311 57.5848L18.168 53.7453C18.168 53.7453 18.168 53.7453 18.168 53.7442C18.1692 53.7429 18.1703 53.7429 18.1715 53.7418C18.259 53.6543 18.3139 53.5493 18.3676 53.4456C18.3828 53.4152 18.4119 53.3895 18.4248 53.3581C18.461 53.2682 18.4667 53.1714 18.4808 53.0768C18.4878 53.0231 18.5112 52.9731 18.5112 52.9181C18.5112 52.8399 18.4831 52.7642 18.4669 52.687C18.4529 52.617 18.4529 52.5458 18.426 52.4783C18.3817 52.3686 18.3058 52.2718 18.2265 52.1772C18.2044 52.1515 18.1962 52.1188 18.1717 52.0944C18.1717 52.0944 18.1717 52.0944 18.1705 52.0944C18.1692 52.0933 18.1692 52.0908 18.1681 52.0897L14.6529 48.5897C14.6156 48.5523 14.5677 48.5372 14.5257 48.5057C14.464 48.4579 14.4045 48.4136 14.3356 48.3797C14.2691 48.347 14.2014 48.3271 14.1314 48.3084C14.0568 48.2874 13.9845 48.2711 13.9063 48.2652C13.835 48.2606 13.7686 48.2675 13.6975 48.2757C13.6193 48.285 13.5459 48.2956 13.47 48.32C13.3964 48.3434 13.3312 48.3795 13.2635 48.4181C13.2203 48.4425 13.1714 48.4507 13.1305 48.4811L9.25133 51.3768L7.28077 49.4145L12.5285 44.1948L22.0674 53.5761L20.0383 55.5863ZM34.9544 40.2374C34.9207 40.2327 34.8891 40.2456 34.8553 40.2433C34.7701 40.2386 34.6885 40.2445 34.6034 40.2584C34.5369 40.2701 34.4739 40.2829 34.4108 40.3051C34.3362 40.3308 34.2685 40.3658 34.1996 40.4077C34.1343 40.4474 34.0748 40.4894 34.0176 40.5419C33.9896 40.5663 33.9558 40.5781 33.9301 40.606L23.6527 51.8622L14.185 42.5508L20.3825 36.3861C20.8387 35.9311 20.841 35.1925 20.386 34.7352C20.1562 34.5054 19.854 34.3922 19.5519 34.3934V34.3923L14.6984 34.4214L14.7591 30.9051L21.5492 30.9635C24.3166 33.7939 28.176 35.5591 32.446 35.5591C33.4027 35.5591 34.3361 35.4599 35.2448 35.2907C35.3323 35.3607 35.4186 35.4319 35.5284 35.4762L40.7995 37.5762L41.1331 39.2352L41.5228 41.1719L34.9544 40.2374ZM43.7944 40.627L43.1096 37.2191L46.2736 34.8566L47.102 35.9556L48.3445 37.6052L43.7944 40.627ZM52.0055 34.4343L50.1726 36.1516L48.1356 33.4473L49.9544 32.0531C50.2938 31.7919 50.7221 31.6856 51.1421 31.7405C51.5644 31.7999 51.9378 32.0205 52.1921 32.3623C52.6658 33.0005 52.5853 33.8907 52.0055 34.4343Z" fill="#212121"/>
<path d="M29.7545 40.5651L25.0668 35.8984C24.613 35.4447 23.8755 35.4447 23.4205 35.8984L18.734 40.5651C18.5147 40.7857 18.391 41.0819 18.391 41.3923C18.391 41.7026 18.5135 42.0002 18.734 42.2195L23.4205 46.8861C23.648 47.1124 23.9468 47.2256 24.2443 47.2256C24.5418 47.2256 24.8404 47.1124 25.0668 46.8861L29.7545 42.2195C29.9738 42.0002 30.0987 41.7026 30.0987 41.3923C30.0987 41.0819 29.9749 40.7844 29.7545 40.5651ZM24.2443 44.4129L21.2109 41.3923L24.2443 38.3717L27.2788 41.3923L24.2443 44.4129Z" fill="#212121"/>
<path d="M37.5468 11.0923L36.9833 13.358C37.1385 13.3966 40.7844 14.3462 40.7844 18.0586H43.1178C43.1177 13.6461 39.4742 11.5718 37.5468 11.0923Z" fill="#212121"/>
<path d="M43.1178 20.3921H40.7844V22.7255H43.1178V20.3921Z" fill="#212121"/>
</symbol>


<!-- SOCIAL ICONS -->

<!-- Instagram -->
<symbol  viewBox="0 0 44 44"  id="instagram">
<path d="M44 22C44 28.0751 41.5376 33.5751 37.5564 37.5564C33.5751 41.5376 28.0751 44 22 44C15.9249 44 10.4249 41.5376 6.44365 37.5564C2.46243 33.5751 0 28.0751 0 22C0 15.9249 2.46243 10.4249 6.44365 6.44365C10.4249 2.46243 15.9249 0 22 0C28.0751 0 33.5751 2.46243 37.5564 6.44365C41.5376 10.4249 44 15.9249 44 22Z" fill="white"/>
<g clip-path="url(#clip0_707_726)">
<path d="M31.9804 17.8801C31.9336 16.8174 31.7617 16.0868 31.5156 15.4537C31.2616 14.7818 30.8709 14.1801 30.359 13.68C29.8589 13.1721 29.2533 12.7774 28.5891 12.5274C27.9524 12.2813 27.2256 12.1094 26.163 12.0626C25.0924 12.0118 24.7525 12 22.0371 12C19.3217 12 18.9818 12.0118 17.9152 12.0586C16.8525 12.1055 16.1219 12.2775 15.489 12.5235C14.8169 12.7774 14.2153 13.1681 13.7152 13.68C13.2073 14.1801 12.8127 14.7857 12.5626 15.4499C12.3164 16.0868 12.1446 16.8134 12.0977 17.8761C12.0469 18.9467 12.0352 19.2866 12.0352 22.002C12.0352 24.7173 12.0469 25.0572 12.0938 26.1239C12.1406 27.1865 12.3126 27.9171 12.5588 28.5502C12.8127 29.2221 13.2073 29.8238 13.7152 30.3239C14.2153 30.8318 14.8209 31.2265 15.4851 31.4765C16.1219 31.7226 16.8486 31.8945 17.9114 31.9413C18.9779 31.9883 19.3179 31.9999 22.0333 31.9999C24.7487 31.9999 25.0885 31.9883 26.1552 31.9413C27.2179 31.8945 27.9484 31.7226 28.5813 31.4765C29.9254 30.9568 30.9881 29.8941 31.5078 28.5502C31.7538 27.9133 31.9258 27.1865 31.9727 26.1239C32.0195 25.0572 32.0313 24.7173 32.0313 22.002C32.0313 19.2866 32.0273 18.9467 31.9804 17.8801ZM30.1794 26.0457C30.1364 27.0225 29.9723 27.5499 29.8356 27.9015C29.4995 28.7728 28.808 29.4643 27.9367 29.8004C27.5851 29.9372 27.0538 30.1012 26.0809 30.1441C25.026 30.1911 24.7096 30.2027 22.0411 30.2027C19.3726 30.2027 19.0522 30.1911 18.0011 30.1441C17.0244 30.1012 16.4969 29.9372 16.1453 29.8004C15.7117 29.6402 15.317 29.3862 14.9967 29.0541C14.6646 28.7298 14.4106 28.3391 14.2504 27.9055C14.1137 27.5539 13.9496 27.0225 13.9067 26.0497C13.8597 24.9948 13.8481 24.6783 13.8481 22.0097C13.8481 19.3412 13.8597 19.0209 13.9067 17.9699C13.9496 16.9932 14.1137 16.4657 14.2504 16.1141C14.4106 15.6804 14.6646 15.2859 15.0007 14.9654C15.3248 14.6333 15.7155 14.3793 16.1493 14.2192C16.5009 14.0825 17.0323 13.9184 18.0051 13.8754C19.06 13.8285 19.3765 13.8168 22.0449 13.8168C24.7174 13.8168 25.0337 13.8285 26.0848 13.8754C27.0616 13.9184 27.589 14.0825 27.9407 14.2192C28.3742 14.3793 28.7689 14.6333 29.0893 14.9654C29.4213 15.2897 29.6753 15.6804 29.8356 16.1141C29.9723 16.4657 30.1364 16.997 30.1794 17.9699C30.2263 19.0248 30.238 19.3412 30.238 22.0097C30.238 24.6783 30.2263 24.9908 30.1794 26.0457Z" fill="#AFB1B8"/>
<path d="M22.0371 16.8643C19.2007 16.8643 16.8994 19.1654 16.8994 22.002C16.8994 24.8385 19.2007 27.1397 22.0371 27.1397C24.8737 27.1397 27.1749 24.8385 27.1749 22.002C27.1749 19.1654 24.8737 16.8643 22.0371 16.8643ZM22.0371 25.3347C20.197 25.3347 18.7044 23.8422 18.7044 22.002C18.7044 20.1617 20.197 18.6693 22.0371 18.6693C23.8774 18.6693 25.3698 20.1617 25.3698 22.002C25.3698 23.8422 23.8774 25.3347 22.0371 25.3347Z" fill="#AFB1B8"/>
<path d="M28.5775 16.6613C28.5775 17.3237 28.0404 17.8608 27.3779 17.8608C26.7155 17.8608 26.1785 17.3237 26.1785 16.6613C26.1785 15.9988 26.7155 15.4619 27.3779 15.4619C28.0404 15.4619 28.5775 15.9988 28.5775 16.6613Z" fill="#AFB1B8"/>
</g>
<defs>
<clipPath id="clip0_707_726">
<rect width="20" height="20" fill="white" transform="translate(12 12)"/>
</clipPath>
</defs>
</symbol>

<!-- twitter -->
<symbol viewBox="0 0 44 44" fill="none" id="twitter">
<path d="M44 22C44 28.0751 41.5376 33.5751 37.5564 37.5564C33.5751 41.5376 28.0751 44 22 44C15.9249 44 10.4249 41.5376 6.44365 37.5564C2.46243 33.5751 0 28.0751 0 22C0 15.9249 2.46243 10.4249 6.44365 6.44365C10.4249 2.46243 15.9249 0 22 0C28.0751 0 33.5751 2.46243 37.5564 6.44365C41.5376 10.4249 44 15.9249 44 22Z" fill="white"/>
<g clip-path="url(#clip0_707_692)">
<path d="M32 15.7988C31.2563 16.125 30.4637 16.3412 29.6375 16.4462C30.4875 15.9388 31.1363 15.1412 31.4412 14.18C30.6488 14.6525 29.7738 14.9863 28.8412 15.1725C28.0887 14.3713 27.0162 13.875 25.8462 13.875C23.5763 13.875 21.7487 15.7175 21.7487 17.9763C21.7487 18.3012 21.7762 18.6137 21.8438 18.9112C18.435 18.745 15.4188 17.1113 13.3925 14.6225C13.0387 15.2363 12.8313 15.9388 12.8313 16.695C12.8313 18.115 13.5625 19.3737 14.6525 20.1025C13.9937 20.09 13.3475 19.8988 12.8 19.5975C12.8 19.61 12.8 19.6262 12.8 19.6425C12.8 21.635 14.2212 23.29 16.085 23.6712C15.7512 23.7625 15.3875 23.8062 15.01 23.8062C14.7475 23.8062 14.4825 23.7913 14.2337 23.7362C14.765 25.36 16.2725 26.5538 18.065 26.5925C16.67 27.6838 14.8988 28.3412 12.9813 28.3412C12.645 28.3412 12.3225 28.3263 12 28.285C13.8162 29.4563 15.9688 30.125 18.29 30.125C25.835 30.125 29.96 23.875 29.96 18.4575C29.96 18.2762 29.9538 18.1013 29.945 17.9275C30.7588 17.35 31.4425 16.6288 32 15.7988Z" fill="#AFB1B8"/>
</g>
<defs>
<clipPath id="clip0_707_692">
<rect width="20" height="20" fill="white" transform="translate(12 12)"/>
</clipPath>
</defs>
</symbol>

<!-- facebook -->

<symbol viewBox="0 0 44 44"  id="facebook">
<path d="M44 22C44 28.0751 41.5376 33.5751 37.5564 37.5564C33.5751 41.5376 28.0751 44 22 44C15.9249 44 10.4249 41.5376 6.44365 37.5564C2.46243 33.5751 0 28.0751 0 22C0 15.9249 2.46243 10.4249 6.44365 6.44365C10.4249 2.46243 15.9249 0 22 0C28.0751 0 33.5751 2.46243 37.5564 6.44365C41.5376 10.4249 44 15.9249 44 22Z" fill="white"/>
<g clip-path="url(#clip0_707_716)">
<path d="M25.3309 15.3208H27.1567V12.1408C26.8417 12.0975 25.7584 12 24.4967 12C21.8642 12 20.0609 13.6558 20.0609 16.6992V19.5H17.1559V23.055H20.0609V32H23.6226V23.0558H26.4101L26.8526 19.5008H23.6217V17.0517C23.6226 16.0242 23.8992 15.3208 25.3309 15.3208Z" fill="#AFB1B8"/>
</g>
<defs>
<clipPath id="clip0_707_716">
<rect width="20" height="20" fill="white" transform="translate(12 12)"/>
</clipPath>
</defs>
</symbol>


<!-- linkedin -->

<symbol viewBox="0 0 44 44"  id="linkedin">
<path d="M44 22C44 28.0751 41.5376 33.5751 37.5564 37.5564C33.5751 41.5376 28.0751 44 22 44C15.9249 44 10.4249 41.5376 6.44365 37.5564C2.46243 33.5751 0 28.0751 0 22C0 15.9249 2.46243 10.4249 6.44365 6.44365C10.4249 2.46243 15.9249 0 22 0C28.0751 0 33.5751 2.46243 37.5564 6.44365C41.5376 10.4249 44 15.9249 44 22Z" fill="white"/>
<g clip-path="url(#clip0_707_710)">
<path d="M31.9951 31.9999V31.999H32.0001V24.664C32.0001 21.0757 31.2276 18.3115 27.0326 18.3115C25.0159 18.3115 23.6626 19.4182 23.1101 20.4674H23.0517V18.6465H19.0742V31.999H23.2159V25.3874C23.2159 23.6465 23.5459 21.9632 25.7017 21.9632C27.8259 21.9632 27.8576 23.9499 27.8576 25.499V31.9999H31.9951Z" fill="#AFB1B8"/>
<path d="M12.33 18.6475H16.4766V32H12.33V18.6475Z" fill="#AFB1B8"/>
<path d="M14.4017 12C13.0758 12 12 13.0758 12 14.4017C12 15.7275 13.0758 16.8258 14.4017 16.8258C15.7275 16.8258 16.8033 15.7275 16.8033 14.4017C16.8025 13.0758 15.7267 12 14.4017 12V12Z" fill="#AFB1B8"/>
</g>
<defs>
<clipPath id="clip0_707_710">
<rect width="20" height="20" fill="white" transform="translate(12 12)"/>
</clipPath>
</defs>
</symbol>

<!-- clients -->

<!-- 1 -->

<symbol  viewBox="0 0 170 92" fill="none" id="client1">
<rect x="0.5" y="0.5" width="169" height="91" rx="3.5" stroke="#AFB1B8"/>
<path fill-rule="evenodd" clip-rule="evenodd" d="M70 23L77.0078 29.6341L64 29.6265V61.8137H98V49.507L105 56.1338V23H70ZM97.6924 48.7283L77.8226 29.918H97.6924V48.7283ZM91.5231 57.1055H69.3801V35.4579H70.9453V55.6397H91.5231V57.1055ZM74.6089 66.0991L73.791 67.7837L72.9731 66.0991H72.2871L73.481 68.3452V69.6538H74.1011V68.3452L75.2925 66.0991H74.6089ZM75.6367 69.6538L75.9248 68.8262H77.3018L77.5923 69.6538H78.2368L76.8916 66.0991H76.3374L74.9946 69.6538H75.6367ZM76.6133 66.8535L77.1284 68.3281H76.0981L76.6133 66.8535ZM79.8701 68.2427C79.7806 68.3794 79.7358 68.5299 79.7358 68.6943C79.7358 68.9938 79.8408 69.2371 80.0508 69.4243C80.2624 69.6099 80.5439 69.7026 80.8955 69.7026C81.2471 69.7026 81.5498 69.6074 81.8037 69.417L82.0039 69.6538H82.6924L82.1699 69.0361C82.375 68.7562 82.4775 68.3973 82.4775 67.9595H81.9624C81.9624 68.1987 81.9128 68.416 81.8135 68.6113L81.1274 67.8008L81.3691 67.625C81.54 67.5013 81.6629 67.3776 81.7378 67.2539C81.8127 67.1286 81.8501 66.9919 81.8501 66.8438C81.8501 66.6191 81.7671 66.4312 81.6011 66.2798C81.4367 66.1268 81.2251 66.0503 80.9663 66.0503C80.6798 66.0503 80.452 66.1317 80.2827 66.2944C80.1134 66.4556 80.0288 66.6753 80.0288 66.9536C80.0288 67.0675 80.0557 67.1855 80.1094 67.3076C80.1647 67.4297 80.2616 67.5778 80.3999 67.752C80.1362 67.9408 79.9596 68.1043 79.8701 68.2427ZM81.4741 69.0288C81.3 69.1623 81.1128 69.229 80.9126 69.229C80.7352 69.229 80.5936 69.1777 80.4878 69.0752C80.382 68.9727 80.3291 68.8392 80.3291 68.6748C80.3291 68.4844 80.4268 68.3151 80.6221 68.167L80.6978 68.1133L81.4741 69.0288ZM80.8369 67.4541C80.6693 67.2474 80.5854 67.0757 80.5854 66.939C80.5854 66.8201 80.6196 66.7217 80.688 66.6436C80.7563 66.5654 80.8483 66.5264 80.9639 66.5264C81.0713 66.5264 81.16 66.5597 81.23 66.6265C81.3 66.6916 81.335 66.7705 81.335 66.8633C81.335 67.0033 81.2845 67.118 81.1836 67.2075L81.1079 67.2686L80.8369 67.4541ZM86.623 69.3853C86.8672 69.172 87.0072 68.8758 87.043 68.4966H86.4277C86.3952 68.7505 86.3179 68.932 86.1958 69.041C86.0737 69.1501 85.8914 69.2046 85.6489 69.2046C85.3836 69.2046 85.1818 69.1037 85.0435 68.9019C84.9067 68.7 84.8384 68.4071 84.8384 68.0229V67.708C84.8416 67.3288 84.9149 67.0415 85.0581 66.8462C85.203 66.6493 85.4097 66.5508 85.6782 66.5508C85.9093 66.5508 86.0843 66.6077 86.2031 66.7217C86.3236 66.834 86.3984 67.0179 86.4277 67.2734H87.043C87.0039 66.8844 86.8647 66.5833 86.6255 66.3701C86.3862 66.1569 86.0705 66.0503 85.6782 66.0503C85.3869 66.0503 85.1297 66.1195 84.9067 66.2578C84.6854 66.3962 84.5153 66.5931 84.3965 66.8486C84.2777 67.1042 84.2183 67.3996 84.2183 67.7349V68.0669C84.2231 68.394 84.2842 68.6813 84.4014 68.9287C84.5186 69.1761 84.6846 69.3674 84.8994 69.5024C85.1159 69.6359 85.3657 69.7026 85.6489 69.7026C86.0542 69.7026 86.3789 69.5968 86.623 69.3853ZM90.2534 68.8872C90.3739 68.6235 90.4341 68.3175 90.4341 67.9692V67.7715C90.4325 67.4248 90.3706 67.1213 90.2485 66.8608C90.1265 66.5988 89.9531 66.3986 89.7285 66.2603C89.5055 66.1203 89.2492 66.0503 88.9595 66.0503C88.6698 66.0503 88.4126 66.1211 88.188 66.2627C87.965 66.4027 87.7917 66.6053 87.668 66.8706C87.5459 67.1359 87.4849 67.4419 87.4849 67.7886V67.9888C87.4865 68.3289 87.5483 68.6292 87.6704 68.8896C87.7941 69.1501 87.9683 69.3511 88.1929 69.4927C88.4191 69.6326 88.6763 69.7026 88.9644 69.7026C89.2557 69.7026 89.5129 69.6326 89.7358 69.4927C89.9604 69.3511 90.133 69.1493 90.2534 68.8872ZM89.5918 66.8779C89.7415 67.0879 89.8164 67.3898 89.8164 67.7837V67.9692C89.8164 68.3696 89.7423 68.674 89.5942 68.8823C89.4478 69.0907 89.2378 69.1948 88.9644 69.1948C88.6942 69.1948 88.4826 69.0882 88.3296 68.875C88.1782 68.6618 88.1025 68.3599 88.1025 67.9692V67.7642C88.1058 67.3817 88.1823 67.0863 88.332 66.8779C88.4834 66.668 88.6925 66.563 88.9595 66.563C89.2329 66.563 89.4437 66.668 89.5918 66.8779Z" fill="#AFB1B8"/>
</symbol>

<!-- 2 -->

<symbol  viewBox="0 0 170 92" fill="none" id="client2">
<rect x="0.5" y="0.5" width="169" height="91" rx="3.5" stroke="#AFB1B8"/>
<path fill-rule="evenodd" clip-rule="evenodd" d="M82.1136 21.9345H81.977C81.7671 21.9218 81.5571 21.9167 81.3471 21.9116H81.3471H81.3269H80.8918C80.4946 21.9116 80.0898 21.9218 79.6876 21.9421C79.6573 21.9399 79.6269 21.9399 79.5966 21.9421C75.9522 22.1486 72.3817 23.0595 69.0805 24.6249L68.6479 24.8334V46.9746L69.6598 46.6313C70.5477 46.3261 71.4938 46.0515 72.4728 45.7972C75.1193 45.1178 77.8367 44.7567 80.568 44.7216V47.6306C80.2062 47.6332 79.8546 47.6434 79.503 47.6612H79.4195C77.3175 47.7765 75.2317 48.0967 73.1913 48.6173C70.6072 49.2643 68.1143 50.2357 65.7716 51.5086V23.1119C68.2047 21.6928 70.8253 20.6269 73.5556 19.946C75.9527 19.3271 78.4169 19.0093 80.8918 19H81.3193C81.8303 19.0127 82.3287 19.0356 82.7967 19.0712C84.0297 19.1578 85.2528 19.3526 86.4521 19.6535V22.5168C85.2874 22.2455 84.1032 22.067 82.9105 21.9828C82.8863 21.9808 82.8621 21.9787 82.8379 21.9767C82.5911 21.9556 82.344 21.9345 82.1136 21.9345ZM87.1528 24.8614C87.7877 24.9097 88.4455 24.9326 89.1108 24.9326C91.7125 24.9231 94.3031 24.5908 96.8239 23.9434C99.4068 23.294 101.899 22.3218 104.241 21.0496V48.9402C101.807 50.3585 99.1853 51.4243 96.4546 52.1061C94.0571 52.7227 91.5931 53.0395 89.1184 53.0496C87.2433 53.0647 85.3737 52.8443 83.553 52.3935V24.3223C83.983 24.4215 84.4257 24.513 84.876 24.5893C85.6147 24.7139 86.3939 24.8054 87.1528 24.8614ZM101.347 25.0775L100.335 25.4183C99.4042 25.7311 98.4657 26.0108 97.5221 26.26C94.7749 26.966 91.9514 27.3281 89.1158 27.3382C88.4556 27.3382 87.8485 27.3204 87.2616 27.2822L86.4546 27.2288V47.3178V50.0057L87.1477 50.0667C87.7903 50.1227 88.4531 50.1506 89.1209 50.1506C91.3544 50.1412 93.5781 49.8533 95.7412 49.2937C97.5223 48.8469 99.2552 48.2243 100.914 47.4348L101.347 47.2263V25.0775Z" fill="#AFB1B8"/>
<path d="M67.7371 61.212C67.5917 61.0611 67.4163 60.9427 67.2224 60.8642C67.0284 60.7858 66.8203 60.7492 66.6114 60.7568C66.3888 60.7539 66.1678 60.7954 65.9613 60.8789C65.7719 60.9543 65.5998 61.0677 65.4553 61.212C65.3125 61.3568 65.2013 61.5301 65.129 61.7206C65.0497 61.9203 65.0101 62.1337 65.0126 62.3487V66.1427C65.0036 66.4101 65.0546 66.676 65.1619 66.9209C65.2514 67.1153 65.3807 67.2886 65.5413 67.4294C65.693 67.5571 65.871 67.6492 66.0625 67.699C66.2469 67.7508 66.4376 67.7774 66.6291 67.7778C66.8404 67.7799 67.0495 67.7348 67.2413 67.6456C67.4309 67.5626 67.6028 67.4434 67.7473 67.2947C67.8881 67.1473 68.0005 66.9748 68.0786 66.7861C68.1597 66.5948 68.201 66.3888 68.2001 66.1809V65.7562H67.2084V66.0944C67.2114 66.2099 67.1916 66.3248 67.1502 66.4326C67.1179 66.5134 67.0688 66.5862 67.006 66.6462C66.9446 66.6959 66.8742 66.733 66.7986 66.7556C66.7316 66.7779 66.6617 66.7899 66.5912 66.7912C66.5026 66.8015 66.413 66.7881 66.3312 66.7524C66.2495 66.7166 66.1786 66.6599 66.1257 66.5877C66.0322 66.4353 65.9864 66.2581 65.9942 66.0792V62.542C65.988 62.3458 66.0297 62.1511 66.1156 61.9749C66.1671 61.8948 66.2399 61.8309 66.3258 61.7904C66.4117 61.75 66.5071 61.7346 66.6013 61.746C66.6868 61.743 66.7717 61.7608 66.8488 61.798C66.9259 61.8352 66.9929 61.8907 67.044 61.9596C67.155 62.1053 67.213 62.2848 67.2084 62.4682V62.7963H68.19V62.4097C68.1919 62.1827 68.1507 61.9575 68.0685 61.746C67.9953 61.5473 67.8825 61.3656 67.7371 61.212Z" fill="#AFB1B8"/>
<path d="M73.6289 61.169C73.3127 60.902 72.9136 60.7545 72.5007 60.752C72.2987 60.7528 72.0984 60.7889 71.9087 60.8588C71.7161 60.9278 71.5384 61.0331 71.3851 61.169C71.2208 61.3167 71.0897 61.4978 71.0005 61.7005C70.9006 61.9322 70.8515 62.1828 70.8563 62.4354V66.0743C70.8495 66.3302 70.8987 66.5846 71.0005 66.8193C71.0903 67.015 71.2215 67.1886 71.3851 67.3279C71.5367 67.4687 71.7147 67.5776 71.9087 67.6483C72.0984 67.7181 72.2987 67.7543 72.5007 67.7551C72.7027 67.7547 72.9031 67.7186 73.0926 67.6483C73.29 67.5766 73.4719 67.4679 73.6289 67.3279C73.7871 67.186 73.9145 67.0129 74.0033 66.8193C74.1051 66.5846 74.1544 66.3302 74.1475 66.0743V62.4354C74.1524 62.1828 74.1032 61.9322 74.0033 61.7005C73.9151 61.5 73.7878 61.3193 73.6289 61.169ZM73.166 66.0743C73.1743 66.1713 73.1609 66.2689 73.1268 66.36C73.0926 66.4511 73.0386 66.5333 72.9687 66.6007C72.8377 66.7105 72.6725 66.7707 72.5019 66.7707C72.3313 66.7707 72.1662 66.7105 72.0352 66.6007C71.9652 66.5333 71.9112 66.4511 71.8771 66.36C71.8429 66.2689 71.8295 66.1713 71.8379 66.0743V62.4354C71.8295 62.3384 71.8429 62.2407 71.8771 62.1496C71.9112 62.0585 71.9652 61.9763 72.0352 61.909C72.1662 61.7991 72.3313 61.739 72.5019 61.739C72.6725 61.739 72.8377 61.7991 72.9687 61.909C73.0386 61.9763 73.0926 62.0585 73.1268 62.1496C73.1609 62.2407 73.1743 62.3384 73.166 62.4354V66.0743Z" fill="#AFB1B8"/>
<path d="M81.3673 67.6993V60.8105H80.4136L79.1614 64.4571H79.1437L77.8813 60.8105H76.9377V67.6993H77.9218V63.5086H77.9395L78.9033 66.4711H79.3941L80.3655 63.5086H80.3832V67.6993H81.3673Z" fill="#AFB1B8"/>
<path d="M86.9581 61.294C86.8065 61.124 86.6153 60.9947 86.4015 60.9177C86.1712 60.8428 85.9302 60.8067 85.6881 60.8109H84.226V67.6996H85.2075V65.0092H85.7134C86.0197 65.0232 86.3244 64.9584 86.5988 64.8211C86.822 64.6971 87.0081 64.5154 87.1377 64.2947C87.2512 64.1114 87.3277 63.9075 87.3628 63.6945C87.4014 63.4353 87.4192 63.1734 87.4159 62.9113C87.4255 62.5805 87.3932 62.2498 87.3198 61.9272C87.2543 61.6888 87.1299 61.471 86.9581 61.294ZM86.4521 63.3945C86.4479 63.5192 86.4168 63.6415 86.361 63.753C86.3049 63.859 86.2162 63.9437 86.1081 63.9946C85.9627 64.0596 85.8041 64.0892 85.6451 64.0811H85.1974V61.739H85.7033C85.8557 61.7316 86.0075 61.7612 86.146 61.8255C86.2475 61.8837 86.3281 61.9727 86.3762 62.0798C86.4299 62.2008 86.4591 62.3313 86.4622 62.4638C86.4622 62.6087 86.4622 62.7613 86.4622 62.9215C86.4622 63.0817 86.4723 63.247 86.4622 63.3945H86.4521Z" fill="#AFB1B8"/>
<path d="M91.6077 60.8105H90.8032L89.2854 67.6993H90.2669L90.5553 66.2193H91.8935L92.1819 67.6993H93.1635L91.6077 60.8105ZM90.702 65.281L91.1852 62.7838H91.2029L91.6836 65.281H90.702Z" fill="#AFB1B8"/>
<path d="M97.9497 64.9606H97.932L96.4496 60.8105H95.506V67.6993H96.4875V63.5569H96.5078L98.0079 67.6993H98.9312V60.8105H97.9497V64.9606Z" fill="#AFB1B8"/>
<path d="M103.948 60.8105L103.158 63.5493H103.138L102.349 60.8105H101.309L102.657 64.7877V67.6993H103.639V64.7877L104.987 60.8105H103.948Z" fill="#AFB1B8"/>
<path d="M65 69.6442H65.4731V70.9716H65.7943V69.6442H66.2649V69.3721H65V69.6442Z" fill="#AFB1B8"/>
<path d="M68.9767 69.3721L68.3569 70.9716H68.6984L68.83 70.6079H69.4675L69.6041 70.9716H69.9532L69.3182 69.3721H68.9767ZM68.9261 70.3384L69.1437 69.7459L69.3612 70.3384H68.9261Z" fill="#AFB1B8"/>
<path d="M72.9079 70.3821H73.2773V70.5881C73.1694 70.6746 73.0358 70.722 72.8978 70.7229C72.8333 70.7265 72.7689 70.7145 72.7099 70.688C72.6509 70.6614 72.5991 70.6211 72.5588 70.5703C72.474 70.4485 72.4322 70.3017 72.4399 70.1533C72.4399 69.7973 72.5942 69.6193 72.9003 69.6193C72.9809 69.6112 73.0617 69.6325 73.128 69.6791C73.1944 69.7257 73.2419 69.7947 73.2621 69.8735L73.5783 69.8125C73.51 69.4997 73.2849 69.3421 72.9003 69.3421C72.6947 69.3366 72.4947 69.4103 72.3413 69.5481C72.2607 69.6276 72.1983 69.7239 72.1586 69.8302C72.1188 69.9365 72.1026 70.0502 72.1111 70.1634C72.1017 70.3823 72.1749 70.5966 72.316 70.7636C72.3943 70.8444 72.4892 70.9071 72.594 70.9475C72.6988 70.9879 72.8111 71.0049 72.9231 70.9975C73.1734 71.0045 73.4165 70.9133 73.6011 70.7432V70.1126H72.9079V70.3821Z" fill="#AFB1B8"/>
<path d="M76.9226 69.3721H76.5988V70.9716H77.7194V70.6995H76.9226V69.3721Z" fill="#AFB1B8"/>
<path d="M80.3175 69.3721H79.9937V70.9716H80.3175V69.3721Z" fill="#AFB1B8"/>
<path d="M83.6365 70.4401L82.9813 69.3721H82.6676V70.9716H82.9686V69.9264L83.6112 70.9716H83.9325V69.3721H83.6365V70.4401Z" fill="#AFB1B8"/>
<path d="M86.6368 70.2672H87.4337V69.9951H86.6368V69.6442H87.4944V69.3721H86.313V70.9716H87.5273V70.6995H86.6368V70.2672Z" fill="#AFB1B8"/>
<path d="M93.9122 70.0027H93.2823V69.3721H92.9611V70.9716H93.2823V70.2723H93.9122V70.9716H94.2335V69.3721H93.9122V70.0027Z" fill="#AFB1B8"/>
<path d="M96.9302 70.2672H97.7296V69.9951H96.9302V69.6442H97.7903V69.3721H96.6089V70.9716H97.8206V70.6995H96.9302V70.2672Z" fill="#AFB1B8"/>
<path d="M101.023 70.2674C101.302 70.2241 101.443 70.0766 101.443 69.8224C101.451 69.7543 101.441 69.6854 101.413 69.6227C101.386 69.5601 101.342 69.5061 101.286 69.4663C101.141 69.3936 100.98 69.3611 100.818 69.3723H100.14V70.9717H100.462V70.303H100.525C100.593 70.2987 100.662 70.3109 100.725 70.3386C100.772 70.3675 100.811 70.4077 100.839 70.4555L101.188 70.9641H101.572L101.377 70.6513C101.291 70.4969 101.17 70.3653 101.023 70.2674ZM100.699 70.0461H100.462V69.6444H100.715C100.825 69.6354 100.936 69.6484 101.041 69.6825C101.064 69.7031 101.083 69.7288 101.095 69.7576C101.107 69.7865 101.113 69.8176 101.111 69.8489C101.11 69.8802 101.101 69.9107 101.087 69.9382C101.072 69.9658 101.051 69.9896 101.026 70.008C100.92 70.0404 100.81 70.0533 100.699 70.0461Z" fill="#AFB1B8"/>
<path d="M104.11 70.2672H104.906V69.9951H104.11V69.6442H104.97V69.3721H103.786V70.9716H105V70.6995H104.11V70.2672Z" fill="#AFB1B8"/>
</symbol>

<!-- 3 -->

<symbol viewBox="0 0 170 92" fill="none" id="client3">
<rect x="0.5" y="0.5" width="169" height="91" rx="3.5" stroke="#AFB1B8"/>
<path d="M68.4063 65.1018C68.4222 65.1022 68.4379 65.1053 68.4524 65.111C68.4669 65.1167 68.4799 65.1248 68.4908 65.135L68.7089 65.3435C68.5396 65.5122 68.3304 65.6472 68.0955 65.7391C67.8204 65.8395 67.5239 65.8879 67.2257 65.8813C66.9455 65.8863 66.6671 65.8411 66.4078 65.7486C66.1739 65.6636 65.9638 65.536 65.7916 65.3743C65.6159 65.2065 65.4805 65.01 65.3935 64.7962C65.2982 64.5578 65.2512 64.3069 65.2545 64.0546C65.2506 63.8007 65.3015 63.5483 65.4044 63.3107C65.4997 63.0955 65.6433 62.8989 65.827 62.7326C66.0132 62.5694 66.2359 62.4412 66.4814 62.3558C66.7499 62.2654 67.0359 62.2203 67.3239 62.2232C67.5914 62.2175 67.8575 62.2586 68.1064 62.344C68.3223 62.4254 68.5206 62.5384 68.6926 62.6781L68.5099 62.9008C68.4973 62.9165 68.4816 62.9301 68.4635 62.941C68.442 62.9539 68.4159 62.9598 68.3899 62.9576C68.3616 62.9559 68.3343 62.9478 68.3109 62.9339L68.2127 62.8747L68.0764 62.7989C68.0175 62.7707 67.9565 62.7462 67.8937 62.7255C67.8128 62.7003 67.7299 62.6805 67.6456 62.6662C67.5386 62.6491 67.4299 62.6412 67.3211 62.6425C67.1138 62.6403 66.908 62.6741 66.7159 62.742C66.5367 62.805 66.375 62.9003 66.2415 63.0216C66.1055 63.1507 66.0007 63.3021 65.9334 63.467C65.8566 63.6556 65.8187 63.8545 65.8216 64.0546C65.8183 64.2578 65.8561 64.4598 65.9334 64.6516C65.9999 64.8151 66.1027 64.9656 66.236 65.0947C66.3609 65.215 66.5157 65.309 66.6886 65.3695C66.8666 65.4336 67.0576 65.4659 67.2503 65.4643C67.3615 65.4658 67.4728 65.4594 67.5829 65.4453C67.7627 65.4263 67.9351 65.372 68.0873 65.2866C68.1636 65.2429 68.2356 65.1937 68.3027 65.1397C68.3307 65.1165 68.3676 65.103 68.4063 65.1018Z" fill="#AFB1B8"/>
<path d="M74.7044 64.0537C74.7078 64.3051 74.6579 64.5548 74.5572 64.7905C74.4684 65.0042 74.3284 65.1992 74.1465 65.3625C73.9646 65.5259 73.745 65.6539 73.5021 65.7381C72.9683 65.915 72.3782 65.915 71.8444 65.7381C71.603 65.6526 71.3848 65.5243 71.2037 65.3614C71.0219 65.1951 70.8809 64.9984 70.7893 64.7834C70.5929 64.3062 70.5929 63.7846 70.7893 63.3074C70.8823 63.0922 71.0231 62.895 71.2037 62.727C71.3864 62.5693 71.6045 62.4459 71.8444 62.3646C72.3775 62.1845 72.969 62.1845 73.5021 62.3646C73.7443 62.45 73.9634 62.5783 74.1455 62.7412C74.325 62.9059 74.465 63.1 74.5572 63.3122C74.6582 63.5494 74.7081 63.8008 74.7044 64.0537ZM74.1319 64.0537C74.1362 63.8526 74.1011 63.6523 74.0283 63.4614C73.9672 63.2979 73.8679 63.1471 73.7366 63.0184C73.6087 62.8967 73.4513 62.8012 73.2758 62.7389C72.8879 62.6093 72.4586 62.6093 72.0707 62.7389C71.8952 62.8012 71.7378 62.8967 71.6099 63.0184C71.4768 63.1463 71.3764 63.2973 71.3155 63.4614C71.1768 63.8471 71.1768 64.2603 71.3155 64.646C71.377 64.8098 71.4773 64.9607 71.6099 65.089C71.7379 65.2099 71.8953 65.3046 72.0707 65.3661C72.4593 65.4924 72.8872 65.4924 73.2758 65.3661C73.4512 65.3046 73.6086 65.2099 73.7366 65.089C73.8673 64.96 73.9665 64.8093 74.0283 64.646C74.1015 64.4551 74.1365 64.2548 74.1319 64.0537Z" fill="#AFB1B8"/>
<path d="M79.0013 64.6746L79.0586 64.8072C79.0804 64.7599 79.0995 64.7172 79.1213 64.6746C79.1421 64.63 79.1657 64.5865 79.1922 64.5443L80.5854 62.3437C80.6127 62.3058 80.6372 62.2821 80.6645 62.275C80.7015 62.2652 80.7403 62.2612 80.779 62.2632H81.1907V65.8424H80.7026V63.2107C80.7026 63.1775 80.7026 63.1396 80.7026 63.0994C80.7 63.0583 80.7 63.0172 80.7026 62.9762L79.3012 65.2076C79.2834 65.241 79.255 65.2692 79.2192 65.289C79.1834 65.3087 79.1418 65.3191 79.0995 65.3189H79.0204C78.9779 65.3194 78.9362 65.3091 78.9004 65.2894C78.8646 65.2696 78.8362 65.2412 78.8186 65.2076L77.3763 62.962C77.3763 63.0046 77.3763 63.0472 77.3763 63.0899C77.3763 63.1325 77.3763 63.1704 77.3763 63.2036V65.8353H76.9047V62.2632H77.3164C77.355 62.2612 77.3938 62.2652 77.4309 62.275C77.4647 62.2896 77.4916 62.3139 77.5072 62.3437L78.9304 64.5467C78.9584 64.5874 78.9821 64.6302 79.0013 64.6746Z" fill="#AFB1B8"/>
<path d="M84.2444 64.4967V65.8374H83.6991V62.2631H84.9151C85.1446 62.2592 85.3735 62.2856 85.594 62.3412C85.7705 62.3847 85.9341 62.4606 86.0739 62.5639C86.195 62.6607 86.2883 62.7807 86.3465 62.9145C86.4109 63.0603 86.4423 63.2155 86.4392 63.3716C86.4416 63.5284 86.4073 63.6839 86.3383 63.8288C86.2728 63.9659 86.1721 64.0882 86.0439 64.1864C85.904 64.294 85.7395 64.3747 85.5613 64.4233C85.349 64.4822 85.127 64.5103 84.9042 64.5062L84.2444 64.4967ZM84.2444 64.113H84.9042C85.0475 64.1146 85.1902 64.0962 85.3268 64.0585C85.4395 64.0256 85.5433 63.9732 85.6322 63.9046C85.7141 63.839 85.7775 63.758 85.8176 63.6677C85.8622 63.5722 85.8844 63.4699 85.883 63.3669C85.8893 63.2675 85.8707 63.1681 85.8283 63.0757C85.7859 62.9832 85.7208 62.8999 85.6376 62.8315C85.4293 62.6902 85.1677 62.6218 84.9042 62.6397H84.2444V64.113Z" fill="#AFB1B8"/>
<path d="M91.5731 65.8423H91.1423C91.0991 65.8437 91.0566 65.832 91.0223 65.8091C90.9914 65.7868 90.9671 65.7584 90.9514 65.7262L90.5806 64.8615H88.7185L88.334 65.7262C88.3199 65.7578 88.2964 65.7856 88.2659 65.8067C88.2312 65.831 88.1877 65.8436 88.1432 65.8423H87.7124L89.3483 62.2627H89.9154L91.5731 65.8423ZM88.8739 64.5133H90.4116L89.7627 63.0563C89.7131 62.9467 89.6721 62.8343 89.64 62.7199L89.5773 62.9071C89.5582 62.9639 89.5364 63.016 89.5173 63.0587L88.8739 64.5133Z" fill="#AFB1B8"/>
<path d="M93.9288 62.2794C93.9614 62.2949 93.9894 62.3168 94.0106 62.3433L96.3962 65.0416C96.3962 64.9989 96.3962 64.9563 96.3962 64.916C96.3962 64.8758 96.3962 64.8355 96.3962 64.7976V62.2628H96.8843V65.8423H96.6116C96.5729 65.8433 96.5345 65.836 96.4998 65.821C96.4662 65.8039 96.4365 65.7814 96.4126 65.7546L94.0297 63.0587C94.0323 63.0998 94.0323 63.1409 94.0297 63.1819C94.0297 63.2222 94.0297 63.2577 94.0297 63.2909V65.8423H93.5416V62.2628H93.8306C93.8644 62.262 93.8979 62.2676 93.9288 62.2794Z" fill="#AFB1B8"/>
<path d="M100.903 64.4193V65.8407H100.358V64.4193L98.8501 62.2635H99.3381C99.3802 62.2614 99.4218 62.2723 99.4554 62.2943C99.4851 62.3173 99.51 62.3446 99.529 62.3749L100.472 63.7655C100.511 63.8247 100.543 63.8792 100.571 63.9313C100.598 63.9834 100.62 64.0332 100.639 64.0829L100.71 63.9289C100.736 63.8726 100.767 63.818 100.802 63.7655L101.732 62.3654C101.752 62.3375 101.775 62.312 101.803 62.2896C101.835 62.265 101.877 62.2523 101.92 62.2541H102.414L100.903 64.4193Z" fill="#AFB1B8"/>
<path d="M78.7314 56.2563C78.9686 56.2823 79.2086 56.3036 79.4512 56.3226C83.1301 54.8927 86.2422 52.5525 88.3987 49.5943C90.5552 46.6362 91.6603 43.1914 91.5759 39.6905L87.5216 36.168C88.346 39.8953 87.9604 43.7483 86.408 47.2961C84.8555 50.8438 82.1976 53.9462 78.7314 56.2563Z" fill="#AFB1B8"/>
<path d="M77.2837 56.0929L77.3928 56.1118C81.0966 53.81 83.9205 50.5957 85.4993 46.8845C87.078 43.1733 87.3389 39.1359 86.2483 35.2945L80.4737 30.2773C82.8094 34.4014 83.7495 39.0168 83.1848 43.5868C82.6201 48.1568 80.5737 52.4936 77.2837 56.0929Z" fill="#AFB1B8"/>
<path d="M96.868 43.8271C95.8869 47.6737 93.5042 51.1429 90.0736 53.7195C89.0717 54.4761 87.991 55.1502 86.8455 55.733C89.6389 55.0196 92.2065 53.7584 94.3503 52.0466C96.494 50.3347 98.1567 48.218 99.21 45.8596L96.868 43.8271Z" fill="#AFB1B8"/>
<path d="M95.949 43.2604L92.6146 40.3633C92.5508 43.6664 91.47 46.8944 89.4845 49.7117C87.499 52.5291 84.6813 54.833 81.3242 56.3841H81.3406C82.0887 56.3838 82.8362 56.3451 83.579 56.268C86.7164 55.1554 89.488 53.3853 91.6464 51.1156C93.8049 48.8459 95.283 46.1472 95.949 43.2604Z" fill="#AFB1B8"/>
<path d="M77.7663 28.1612L73.7883 24.7002C70.2322 25.8941 67.1738 27.9931 65.0134 30.7223C62.8529 33.4515 61.6912 36.6838 61.6801 39.9961V39.9961C61.6934 43.6562 63.1113 47.2079 65.7093 50.089C68.3073 52.9702 71.9371 55.0162 76.0241 55.9033C79.6725 52.0412 81.8086 47.269 82.1219 42.28C82.4352 37.291 80.9094 32.3452 77.7663 28.1612Z" fill="#AFB1B8"/>
<path d="M105.14 42.7277C105.126 38.3852 103.134 34.2242 99.5997 31.1535C96.0656 28.0829 91.2764 26.3524 86.2784 26.3399C83.9688 26.3378 81.6789 26.7081 79.5249 27.4319L103.88 48.593C104.714 46.7225 105.142 44.7337 105.14 42.7277Z" fill="#AFB1B8"/>
</symbol>

<!-- 4 -->

<symbol  viewBox="0 0 170 92" fill="none" id="client4">
<rect x="0.5" y="0.5" width="169" height="91" rx="3.5" stroke="#2196F3"/>
<path d="M56.1462 37.1035H56.1433C53.7453 37.1035 51.8013 38.8311 51.8013 40.9622V40.9647C51.8013 43.0958 53.7453 44.8234 56.1433 44.8234H56.1462C58.5442 44.8234 60.4882 43.0958 60.4882 40.9647V40.9622C60.4882 38.8311 58.5442 37.1035 56.1462 37.1035Z" fill="#2196F3"/>
<path d="M88.195 35.8695C88.1882 32.9095 86.8623 30.0725 84.5074 27.9792C82.1525 25.8859 78.9604 24.7069 75.6297 24.7002V24.7002C72.298 24.7056 69.1045 25.884 66.7484 27.9774C64.3922 30.0708 63.0655 32.9087 63.0587 35.8695V52.1924C63.0587 52.1924 88.1922 49.7047 88.195 35.8721V35.8695Z" fill="#2196F3"/>
<path d="M43 57.5495C43.006 59.6091 43.9291 61.5828 45.5676 63.0394C47.2061 64.496 49.4267 65.317 51.7442 65.3231C54.0612 65.317 56.2814 64.4963 57.9197 63.0403C59.5581 61.5843 60.4816 59.6112 60.4884 57.552V46.1943C60.4884 46.1943 43 47.9266 43 57.5495ZM51.7442 59.5844C51.2913 59.5844 50.8486 59.4651 50.472 59.2415C50.0955 59.0179 49.802 58.7001 49.6287 58.3282C49.4554 57.9564 49.41 57.5472 49.4984 57.1525C49.5867 56.7577 49.8048 56.3951 50.125 56.1105C50.4453 55.8259 50.8533 55.6321 51.2975 55.5536C51.7416 55.4751 52.202 55.5154 52.6205 55.6694C53.0389 55.8234 53.3965 56.0843 53.6481 56.4189C53.8997 56.7535 54.034 57.147 54.034 57.5495C54.0351 57.8173 53.9767 58.0828 53.8622 58.3306C53.7476 58.5783 53.5791 58.8036 53.3664 58.9933C53.1536 59.1831 52.9008 59.3337 52.6224 59.4364C52.3441 59.5392 52.0456 59.5921 51.7442 59.5921V59.5844Z" fill="#2196F3"/>
<path d="M69.4177 58.4639H67.7302V60.207H66.8513V55.9414H69.6287V56.6533H67.7302V57.7549H69.4177V58.4639ZM73.6423 58.1709C73.6423 58.5908 73.5681 58.959 73.4197 59.2754C73.2712 59.5918 73.0583 59.8359 72.781 60.0078C72.5056 60.1797 72.1892 60.2656 71.8318 60.2656C71.4783 60.2656 71.1628 60.1807 70.8855 60.0107C70.6082 59.8408 70.3933 59.5986 70.241 59.2842C70.0886 58.9678 70.0115 58.6045 70.0095 58.1943V57.9834C70.0095 57.5635 70.0847 57.1943 70.2351 56.876C70.3875 56.5557 70.6013 56.3105 70.8767 56.1406C71.1541 55.9688 71.4705 55.8828 71.8259 55.8828C72.1814 55.8828 72.4968 55.9688 72.7722 56.1406C73.0496 56.3105 73.2634 56.5557 73.4138 56.876C73.5662 57.1943 73.6423 57.5625 73.6423 57.9805V58.1709ZM72.7517 57.9775C72.7517 57.5303 72.6716 57.1904 72.5115 56.958C72.3513 56.7256 72.1228 56.6094 71.8259 56.6094C71.531 56.6094 71.3035 56.7246 71.1433 56.9551C70.9832 57.1836 70.9021 57.5195 70.9001 57.9629V58.1709C70.9001 58.6064 70.9802 58.9443 71.1404 59.1846C71.3005 59.4248 71.531 59.5449 71.8318 59.5449C72.1267 59.5449 72.3533 59.4297 72.5115 59.1992C72.6697 58.9668 72.7498 58.6289 72.7517 58.1855V57.9775ZM76.4929 59.0879C76.4929 58.9219 76.4343 58.7949 76.3171 58.707C76.2 58.6172 75.989 58.5234 75.6843 58.4258C75.3796 58.3262 75.1384 58.2285 74.9607 58.1328C74.4763 57.8711 74.2341 57.5186 74.2341 57.0752C74.2341 56.8447 74.2986 56.6396 74.4275 56.46C74.5583 56.2783 74.7449 56.1367 74.9871 56.0352C75.2312 55.9336 75.5046 55.8828 75.8074 55.8828C76.1121 55.8828 76.3835 55.9385 76.6218 56.0498C76.8601 56.1592 77.0447 56.3145 77.1755 56.5156C77.3083 56.7168 77.3748 56.9453 77.3748 57.2012H76.4958C76.4958 57.0059 76.4343 56.8545 76.3113 56.7471C76.1882 56.6377 76.0154 56.583 75.7927 56.583C75.5779 56.583 75.4109 56.6289 75.2917 56.7207C75.1726 56.8105 75.113 56.9297 75.113 57.0781C75.113 57.2168 75.1824 57.333 75.321 57.4268C75.4617 57.5205 75.6677 57.6084 75.9392 57.6904C76.4392 57.8408 76.8035 58.0273 77.032 58.25C77.2605 58.4727 77.3748 58.75 77.3748 59.082C77.3748 59.4512 77.2351 59.7412 76.9558 59.9521C76.6765 60.1611 76.3005 60.2656 75.8279 60.2656C75.4998 60.2656 75.2009 60.2061 74.9314 60.0869C74.6619 59.9658 74.4558 59.8008 74.3132 59.5918C74.1726 59.3828 74.1023 59.1406 74.1023 58.8652H74.9841C74.9841 59.3359 75.2654 59.5713 75.8279 59.5713C76.0369 59.5713 76.2 59.5293 76.3171 59.4453C76.4343 59.3594 76.4929 59.2402 76.4929 59.0879ZM81.1833 56.6533H79.8767V60.207H78.9978V56.6533H77.7087V55.9414H81.1833V56.6533ZM84.2537 58.3584H82.5662V59.501H84.5466V60.207H81.6873V55.9414H84.5408V56.6533H82.5662V57.6699H84.2537V58.3584ZM86.6414 58.6455H85.9412V60.207H85.0623V55.9414H86.6472C87.1511 55.9414 87.5398 56.0537 87.8132 56.2783C88.0867 56.5029 88.2234 56.8203 88.2234 57.2305C88.2234 57.5215 88.1599 57.7646 88.033 57.96C87.908 58.1533 87.7175 58.3076 87.4617 58.4229L88.3845 60.166V60.207H87.4412L86.6414 58.6455ZM85.9412 57.9336H86.6501C86.8708 57.9336 87.0417 57.8779 87.1628 57.7666C87.2839 57.6533 87.3445 57.498 87.3445 57.3008C87.3445 57.0996 87.2869 56.9414 87.1716 56.8262C87.0583 56.7109 86.8835 56.6533 86.6472 56.6533H85.9412V57.9336ZM91.2673 58.7041V60.207H90.3884V55.9414H92.0525C92.3728 55.9414 92.6541 56 92.8962 56.1172C93.1404 56.2344 93.3279 56.4014 93.4587 56.6182C93.5896 56.833 93.655 57.0781 93.655 57.3535C93.655 57.7715 93.5115 58.1016 93.2244 58.3438C92.9392 58.584 92.5437 58.7041 92.0378 58.7041H91.2673ZM91.2673 57.9922H92.0525C92.2849 57.9922 92.4617 57.9375 92.5828 57.8281C92.7058 57.7188 92.7673 57.5625 92.7673 57.3594C92.7673 57.1504 92.7058 56.9814 92.5828 56.8525C92.4597 56.7236 92.2898 56.6572 92.073 56.6533H91.2673V57.9922ZM96.8279 58.3584H95.1404V59.501H97.1208V60.207H94.2615V55.9414H97.115V56.6533H95.1404V57.6699H96.8279V58.3584ZM100.906 56.6533H99.5994V60.207H98.7205V56.6533H97.4314V55.9414H100.906V56.6533ZM103.976 58.3584H102.289V59.501H104.269V60.207H101.41V55.9414H104.263V56.6533H102.289V57.6699H103.976V58.3584ZM106.364 58.6455H105.664V60.207H104.785V55.9414H106.37C106.874 55.9414 107.262 56.0537 107.536 56.2783C107.809 56.5029 107.946 56.8203 107.946 57.2305C107.946 57.5215 107.883 57.7646 107.756 57.96C107.631 58.1533 107.44 58.3076 107.184 58.4229L108.107 60.166V60.207H107.164L106.364 58.6455ZM105.664 57.9336H106.373C106.594 57.9336 106.764 57.8779 106.885 57.7666C107.007 57.6533 107.067 57.498 107.067 57.3008C107.067 57.0996 107.01 56.9414 106.894 56.8262C106.781 56.7109 106.606 56.6533 106.37 56.6533H105.664V57.9336ZM110.829 59.0879C110.829 58.9219 110.77 58.7949 110.653 58.707C110.536 58.6172 110.325 58.5234 110.02 58.4258C109.716 58.3262 109.474 58.2285 109.297 58.1328C108.812 57.8711 108.57 57.5186 108.57 57.0752C108.57 56.8447 108.635 56.6396 108.763 56.46C108.894 56.2783 109.081 56.1367 109.323 56.0352C109.567 55.9336 109.841 55.8828 110.143 55.8828C110.448 55.8828 110.719 55.9385 110.958 56.0498C111.196 56.1592 111.381 56.3145 111.511 56.5156C111.644 56.7168 111.711 56.9453 111.711 57.2012H110.832C110.832 57.0059 110.77 56.8545 110.647 56.7471C110.524 56.6377 110.351 56.583 110.129 56.583C109.914 56.583 109.747 56.6289 109.628 56.7207C109.509 56.8105 109.449 56.9297 109.449 57.0781C109.449 57.2168 109.518 57.333 109.657 57.4268C109.798 57.5205 110.004 57.6084 110.275 57.6904C110.775 57.8408 111.139 58.0273 111.368 58.25C111.596 58.4727 111.711 58.75 111.711 59.082C111.711 59.4512 111.571 59.7412 111.292 59.9521C111.012 60.1611 110.636 60.2656 110.164 60.2656C109.836 60.2656 109.537 60.2061 109.267 60.0869C108.998 59.9658 108.792 59.8008 108.649 59.5918C108.509 59.3828 108.438 59.1406 108.438 58.8652H109.32C109.32 59.3359 109.601 59.5713 110.164 59.5713C110.373 59.5713 110.536 59.5293 110.653 59.4453C110.77 59.3594 110.829 59.2402 110.829 59.0879Z" fill="#2196F3"/>
</symbol>

<!-- 5 -->

<symbol  viewBox="0 0 170 92" fill="none" id="client5">
<rect x="0.5" y="0.5" width="169" height="91" rx="3.5" stroke="#AFB1B8"/>
<path d="M58.7569 60.7349C59.0006 61.011 59.1304 61.3569 59.1236 61.7118C59.136 61.9434 59.0914 62.1745 58.993 62.3881C58.8947 62.6018 58.7451 62.7924 58.5554 62.9459C58.082 63.2732 57.4956 63.4333 56.9037 63.3966H54V57.2051H56.8442C57.4057 57.1709 57.9626 57.3163 58.42 57.6165C58.6036 57.7572 58.7491 57.9351 58.8448 58.1362C58.9406 58.3372 58.984 58.5559 58.9716 58.7749C58.9883 59.1164 58.8712 59.4522 58.6413 59.7216C58.4206 59.9676 58.1156 60.1382 57.7758 60.2056C58.161 60.2699 58.5087 60.4575 58.7569 60.7349ZM55.3511 59.8003H56.5667C56.843 59.819 57.1174 59.7459 57.3397 59.5946C57.431 59.5188 57.502 59.4249 57.5473 59.32C57.5925 59.2151 57.6108 59.1021 57.6007 58.9896C57.6093 58.8776 57.5906 58.7653 57.5461 58.6607C57.5015 58.5561 57.4322 58.4618 57.343 58.3847C57.1141 58.2291 56.8312 58.1549 56.5469 58.176H55.3511V59.8003ZM57.4587 62.1746C57.5562 62.0971 57.6329 62 57.6828 61.8908C57.7326 61.7817 57.7543 61.6635 57.7461 61.5455C57.7535 61.4261 57.7309 61.3067 57.6799 61.1965C57.6289 61.0864 57.551 60.9885 57.4521 60.9103C57.2142 60.7488 56.9217 60.6696 56.6262 60.6865H55.3511V62.3894H56.6427C56.9334 62.4047 57.2212 62.329 57.4587 62.1746Z" fill="#AFB1B8"/>
<path d="M64.5709 63.3973L62.9886 60.9776H62.394V63.3973H61.033V57.2058H63.6096C64.2591 57.1643 64.9012 57.3527 65.4034 57.7321C65.7635 58.0682 65.9808 58.511 66.0159 58.9807C66.051 59.4504 65.9018 59.9162 65.595 60.294C65.2771 60.6275 64.8428 60.8498 64.3661 60.9231L66.0508 63.3973H64.5709ZM62.394 60.1337H63.5072C64.2802 60.1337 64.6667 59.8212 64.6667 59.1961C64.6746 59.0684 64.6534 58.9407 64.6045 58.8209C64.5556 58.7011 64.48 58.592 64.3826 58.5004C64.1383 58.3144 63.8237 58.2242 63.5072 58.2494H62.3807L62.394 60.1337Z" fill="#AFB1B8"/>
<path d="M72.0101 62.1502H69.298L68.819 63.3963H67.392L69.8827 57.2744H71.4254L73.9063 63.3963H72.4792L72.0101 62.1502ZM71.6467 61.2125L70.6557 58.5992L69.6647 61.2125H71.6467Z" fill="#AFB1B8"/>
<path d="M81.3225 63.3965H79.9714L76.9421 59.1862V63.3965H75.5944V57.2051H76.9421L79.9714 61.4396V57.2051H81.3225V63.3965Z" fill="#AFB1B8"/>
<path d="M89.0326 61.9148C88.7532 62.3822 88.3276 62.7625 87.8103 63.0067C87.2222 63.2786 86.5695 63.4127 85.9109 63.3968H83.506V57.2054H85.9109C86.5684 57.1896 87.2202 57.3204 87.8103 57.5865C88.3275 57.8251 88.7536 58.2016 89.0326 58.6663C89.3107 59.1698 89.4556 59.7262 89.4556 60.2905C89.4556 60.8548 89.3107 61.4112 89.0326 61.9148ZM87.4866 61.7665C87.8722 61.3552 88.0842 60.8311 88.0842 60.289C88.0842 59.7469 87.8722 59.2228 87.4866 58.8115C87.0205 58.4389 86.4127 58.2498 85.7952 58.2852H84.8571V62.2928H85.7952C86.4127 62.3282 87.0205 62.1391 87.4866 61.7665Z" fill="#AFB1B8"/>
<path d="M72.8558 22.7666C72.8558 22.7666 90.2945 28.7947 89.9245 37.5178V52.2721C89.9245 52.2721 72.4991 46.2409 72.8624 37.5178L72.8558 22.7666Z" fill="#AFB1B8"/>
<path d="M105.46 48.8181C108.754 46.7428 112.563 45.4574 116.54 45.0796V40.4609C111.958 42.0779 108.071 45.0098 105.46 48.8181Z" fill="#AFB1B8"/>
<path d="M103.482 50.2094C106.177 45.2395 110.85 41.4045 116.54 39.493V26.1846C116.54 26.1846 91.705 34.7716 92.2303 47.1938V68.2C92.2303 68.2 93.3369 67.8159 95.0778 67.096C95.0778 66.4246 95.0778 65.747 95.1571 65.0665C95.6711 59.2995 98.6654 53.9554 103.482 50.2094Z" fill="#AFB1B8"/>
<path d="M101.12 58.013C101.25 56.5561 101.541 55.1151 101.989 53.7119C98.9896 56.947 97.1734 60.9613 96.7956 65.1905C96.7592 65.5897 96.7394 65.989 96.7295 66.4003C98.14 65.7803 99.7818 65.006 101.506 64.0956C101.066 62.0947 100.936 60.0471 101.12 58.013Z" fill="#AFB1B8"/>
<path d="M102.107 58.0886C101.942 59.9289 102.045 61.7812 102.415 63.5965C109.2 59.8792 116.824 54.1354 116.53 47.1938V46.5889C111.682 47.0855 107.147 49.0259 103.62 52.1119C102.795 54.0243 102.285 56.0386 102.107 58.0886Z" fill="#AFB1B8"/>
</symbol>

<!-- 6 -->

<symbol viewBox="0 0 170 92" fill="none" id="client6" >
<rect x="0.5" y="0.5" width="169" height="91" rx="3.5" stroke="#AFB1B8"/>
<path d="M85.425 43.4081C84.9819 42.8183 84.7699 42.1212 84.8203 41.4195V38.5363C84.8203 37.6525 85.0207 36.9808 85.4216 36.5213C85.8224 36.0618 86.511 35.833 87.4871 35.835C88.4044 35.835 89.0555 36.0305 89.4405 36.4216C89.8605 36.9206 90.0648 37.5307 90.018 38.1462V38.8238H88.3772V38.1374C88.383 37.9128 88.3671 37.6881 88.3296 37.4657C88.306 37.3137 88.2234 37.1731 88.0952 37.0669C87.9267 36.9523 87.7145 36.8968 87.5007 36.9114C87.2759 36.8969 87.0529 36.9555 86.8756 37.0757C86.7327 37.1933 86.6374 37.3476 86.6038 37.5156C86.5567 37.7509 86.5351 37.9896 86.5393 38.2283V41.7275C86.5134 42.065 86.5858 42.4028 86.7499 42.71C86.8315 42.814 86.9448 42.8964 87.0774 42.9482C87.2099 42.9999 87.3564 43.019 87.5007 43.0034C87.7109 43.0183 87.9195 42.9614 88.0816 42.845C88.2153 42.7304 88.3013 42.5809 88.3262 42.4197C88.3645 42.1875 88.3816 41.9531 88.3772 41.7187V41.0089H90.018V41.6571C90.0641 42.2986 89.8648 42.9355 89.4507 43.4697C89.0736 43.8979 88.4315 44.112 87.4871 44.112C86.5427 44.112 85.8292 43.8833 85.425 43.4081Z" fill="#AFB1B8"/>
<path d="M92.2569 43.4374C91.8425 42.9887 91.6353 42.3346 91.6353 41.4694V38.4366C91.6353 37.5801 91.8425 36.9319 92.2569 36.492C92.6714 36.052 93.3644 35.833 94.336 35.835C95.3008 35.835 95.9904 36.054 96.4049 36.492C96.8193 36.9319 97.03 37.5801 97.03 38.4366V41.4694C97.03 42.3258 96.8193 42.9828 96.3981 43.4345C95.9768 43.8862 95.2906 44.112 94.336 44.112C93.3814 44.112 92.6748 43.8833 92.2569 43.4374ZM95.1004 42.71C95.2488 42.4289 95.3164 42.121 95.2974 41.8125V38.0993C95.3165 37.7968 95.25 37.4948 95.1038 37.2194C95.0205 37.1132 94.9044 37.0295 94.7686 36.9776C94.6329 36.9257 94.483 36.9079 94.336 36.9261C94.1886 36.9083 94.0384 36.9264 93.9022 36.9782C93.766 37.03 93.6492 37.1135 93.5648 37.2194C93.4155 37.494 93.3477 37.7964 93.3678 38.0993V41.8301C93.3472 42.1387 93.4148 42.447 93.5648 42.7276C93.6605 42.8223 93.7785 42.8981 93.9109 42.95C94.0434 43.002 94.1872 43.0289 94.3326 43.0289C94.4781 43.0289 94.6219 43.002 94.7543 42.95C94.8867 42.8981 95.0047 42.8223 95.1004 42.7276V42.71Z" fill="#AFB1B8"/>
<path d="M99.0035 35.9238H100.77L102.098 41.5195L103.457 35.9238H105.176L105.35 44.0005H104.079L103.943 38.3873L102.632 44.0005H101.613L100.254 38.3668L100.128 44.0005H98.8439L99.0035 35.9238Z" fill="#AFB1B8"/>
<path d="M107.33 35.9238H110.082C111.667 35.9238 112.46 36.6883 112.46 38.2172C112.46 39.6816 111.625 40.4128 109.956 40.4109H109.019V44.0005H107.32L107.33 35.9238ZM109.681 39.3756C109.849 39.394 110.019 39.3807 110.181 39.3367C110.342 39.2926 110.49 39.2189 110.615 39.1205C110.81 38.8477 110.896 38.5273 110.86 38.2084C110.869 37.962 110.841 37.7157 110.778 37.4752C110.754 37.3949 110.712 37.3196 110.653 37.2536C110.595 37.1877 110.522 37.1324 110.439 37.0911C110.203 36.9934 109.942 36.949 109.681 36.962H109.022V39.3756H109.681Z" fill="#AFB1B8"/>
<path d="M114.909 35.9238H116.734L118.606 44.0005H117.022L116.652 42.1383H115.025L114.644 44.0005H113.038L114.909 35.9238ZM116.469 41.2027L115.833 37.8125L115.198 41.2027H116.469Z" fill="#AFB1B8"/>
<path d="M120.117 35.9238H121.306L123.582 40.5311V35.9238H124.992V44.0005H123.861L121.571 39.1909V44.0005H120.114L120.117 35.9238Z" fill="#AFB1B8"/>
<path d="M128.294 40.9204L126.402 35.9346H127.996L129.151 39.1373L130.234 35.9346H131.794L129.925 40.9204V44H128.294V40.9204Z" fill="#AFB1B8"/>
<path d="M88.0477 47.5312V47.9536H86.6617V51.2355H86.0807V47.9536H84.6879V47.5312H88.0477Z" fill="#AFB1B8"/>
<path d="M92.3927 51.2363H91.9442C91.8987 51.2388 91.8538 51.2262 91.8185 51.2011C91.7846 51.1796 91.7587 51.1501 91.7438 51.1161L91.3429 50.2362H89.4201L89.0192 51.1161C89.0078 51.1529 88.9869 51.187 88.958 51.2158C88.9225 51.2403 88.8778 51.2529 88.8324 51.251H88.3839L90.0825 47.5469H90.6737L92.3927 51.2363ZM89.5797 49.8608H91.1833L90.5038 48.3534C90.4537 48.2394 90.4117 48.1228 90.3781 48.0044C90.3543 48.0748 90.3339 48.1422 90.3136 48.2009L90.2524 48.3563L89.5797 49.8608Z" fill="#AFB1B8"/>
<path d="M95.3212 50.8724C95.4275 50.8772 95.5341 50.8772 95.6405 50.8724C95.7323 50.8642 95.8232 50.8495 95.9123 50.8284C95.9955 50.8107 96.0772 50.7882 96.1569 50.7609C96.2316 50.7345 96.3064 50.7022 96.3845 50.67V49.8369H95.705C95.6882 49.8378 95.6714 49.8356 95.6556 49.8305C95.6399 49.8255 95.6255 49.8177 95.6133 49.8076C95.6022 49.7993 95.5933 49.7889 95.5875 49.7772C95.5816 49.7655 95.5788 49.7529 95.5794 49.7401V49.4556H96.8975V50.8753C96.7899 50.9417 96.6763 51.0006 96.5577 51.0513C96.4366 51.1029 96.3104 51.1451 96.1807 51.1774C96.0417 51.2127 95.8997 51.2382 95.756 51.2537C95.5913 51.2695 95.4257 51.2773 95.26 51.2771C94.967 51.2793 94.6763 51.2325 94.4039 51.1393C94.1496 51.051 93.9185 50.9193 93.7245 50.7521C93.5353 50.5832 93.3864 50.3839 93.2862 50.1655C93.1792 49.9199 93.1261 49.6593 93.13 49.397C93.1264 49.133 93.1782 48.8706 93.2828 48.6226C93.3805 48.4031 93.5297 48.2033 93.7211 48.036C93.9149 47.8693 94.1461 47.7386 94.4005 47.6517C94.6914 47.5572 95.0002 47.5105 95.311 47.5138C95.4691 47.5137 95.627 47.5245 95.7832 47.5461C95.9213 47.5655 96.0567 47.597 96.1875 47.64C96.3063 47.6785 96.4202 47.7277 96.5272 47.7866C96.6313 47.8445 96.7301 47.9092 96.8227 47.9802L96.6597 48.209C96.6469 48.2299 96.6279 48.2475 96.6046 48.2598C96.5813 48.2722 96.5545 48.279 96.5272 48.2794C96.4896 48.2784 96.4531 48.2682 96.4219 48.2501C96.3709 48.2266 96.3165 48.1973 96.2554 48.1621C96.1832 48.123 96.107 48.0896 96.0278 48.0624C95.9265 48.0273 95.822 47.9998 95.7152 47.9802C95.5729 47.9576 95.4285 47.9468 95.2838 47.948C95.0597 47.9458 94.8371 47.9807 94.6281 48.0506C94.4391 48.1161 94.2687 48.2162 94.1287 48.3439C93.9879 48.4771 93.8804 48.6339 93.8128 48.8045C93.661 49.2056 93.661 49.6381 93.8128 50.0393C93.8871 50.2135 94.0029 50.3724 94.1525 50.5057C94.2918 50.6328 94.4609 50.7328 94.6485 50.799C94.8645 50.8631 95.0935 50.888 95.3212 50.8724Z" fill="#AFB1B8"/>
<path d="M100.736 50.8132H102.591V51.2355H100.169V47.5312H100.75L100.736 50.8132Z" fill="#AFB1B8"/>
<path d="M104.521 51.2355H103.94V47.5312H104.521V51.2355Z" fill="#AFB1B8"/>
<path d="M106.681 47.5489C106.716 47.5659 106.746 47.5888 106.77 47.6163L109.253 50.4086C109.25 50.3647 109.25 50.3206 109.253 50.2767C109.253 50.2356 109.253 50.1945 109.253 50.1564V47.5166H109.759V51.2358H109.467C109.424 51.2388 109.38 51.2317 109.341 51.2153C109.306 51.1968 109.275 51.1729 109.25 51.1449L106.77 48.3555C106.77 48.3995 106.77 48.4405 106.77 48.4816C106.77 48.5227 106.77 48.5608 106.77 48.596V51.2358H106.284V47.5313H106.586C106.619 47.5313 106.651 47.5373 106.681 47.5489Z" fill="#AFB1B8"/>
<path d="M114.036 47.5312V47.9389H111.978V49.162H113.646V49.555H111.978V50.8191H114.036V51.2268H111.38V47.5312H114.036Z" fill="#AFB1B8"/>
<path d="M53.1618 24.6554L78.9568 30.9787V53.1367L53.1618 46.8163V24.6554ZM51.5073 22.7666V47.8927L80.6079 55.0284V29.9053L51.5073 22.7666Z" fill="#AFB1B8"/>
<path d="M67.1039 66.6919L38 59.5502V34.4268L67.1039 41.5655V66.6919Z" fill="#AFB1B8"/>
<path d="M51.9897 24.3709L77.4484 30.6149L66.6215 39.9648L41.1594 33.7178L51.9897 24.3709ZM51.5073 22.7666L38 34.4276L67.1039 41.5661L80.6078 29.9051L51.5073 22.7666Z" fill="#AFB1B8"/>
<path d="M68.7415 65.2786L80.6078 55.0314L68.7415 52.1191V65.2786Z" fill="#AFB1B8"/>
</symbol>


</svg>

